<svg id="Layer_1" data-name="Layer 1" xmlns="http://www.w3.org/2000/svg" viewBox="0 0 1366 907"><defs><style>.cls-1{fill:#0f560f;}.cls-2{fill:#1a3302;}.cls-3{fill:#1b9412;}.cls-4{fill:#00091d;}.cls-5{fill:#0f7c3d;}.cls-6{fill:#0373a5;}.cls-7{fill:#1a3920;}.cls-8{fill:#0f6d05;}.cls-9{fill:#023a0c;}.cls-10{fill:#000d63;}.cls-11{fill:#1a4867;}.cls-12{fill:#1baacd;}.cls-13{fill:#021c08;}.cls-14{fill:#025431;}.cls-15{fill:#030ecd;}.cls-16{fill:#1b9d00;}</style></defs><title>backgroundpattern</title><path class="cls-1" d="M302.26-.93H499.17c-.38,4.21-.79,8.41-1.14,12.62-1,12.53-2,25.07-3.05,37.6-1.06,12.83-2.15,25.66-3.21,38.49-1,12.53-2,25.07-3,37.6q-1.59,19.4-3.22,38.79-1.53,18.5-3,37-1.6,19.4-3.21,38.8-1.58,19.1-3.18,38.19c-.64,7.72-1.32,15.44-1.89,23.16-.26,3.51.29,3.88,3.54,2.71,5-1.81,10-3.68,15.06-5.52q30.79-11.29,61.59-22.58c3.18-1.16,6.38-2.24,9.71-3.41.09,1.74-.76,2.51-1.34,3.38-3.22,4.86-6.55,9.64-9.73,14.53-4.1,6.28-8.68,12.21-12.34,18.82l-1,.59c-1.6.12-3.21.16-4.8.37-6.75.86-13.5,1.76-20.25,2.65L473,318.34h0c.2-3.11.39-6.22.6-9.33.16-2.37-.35-3.31-2.89-2.35-9.83,3.7-19.78,7-29.57,10.83-6,2.34-12.33,4-18.16,6.95l-6.22,1.23c-2.45.26-4.9.47-7.34.79-12.78,1.68-25.56,3.43-38.35,5.09-16.64,2.16-33.29,4.25-49.93,6.4-8.09,1-16.16,2.2-24.25,3.23-3.71.47-4.29-.13-4.24-4.21.06-5.53.23-11.06.41-16.59q.65-20.66,1.22-41.33c.36-12.47.81-24.94,1.11-37.41.49-20.82,1.15-41.64,1.78-62.45q.55-17.95,1.06-35.9Q299,112.66,299.91,82c.36-12.27.82-24.53,1.08-36.8C301.33,29.84,301.91,14.46,302.26-.93Z" transform="translate(0 1)"/><path class="cls-2" d="M1365.94,272.34v94.92c-1.15.67-1.63,1.93-2.3,3q-63.55,101-127.06,202c-.78,1.25-1.42,2.6-2.12,3.9l-1.13.89a21.54,21.54,0,0,0-3.08.45q-27.26,8-54.51,16c-12.78,3.76-25.57,7.49-38.33,11.33-2.25.68-3.57.12-4.46-2.2-1.17-3.07-2.53-6.07-3.81-9.1l-7.4-17.41a7.59,7.59,0,0,0,.46,4.19q13.75,49.67,27.5,99.35c2,7.14,4.37,14.15,5.62,21.5l-11.85,19.15-.72.67-.47.59h0a24.84,24.84,0,0,0-6.37,1.41q-38.32,11.12-76.62,22.35c-3.34,1-6.92,1.31-9.92,3.46l-.56-.1c.23-1.86-.41-3.57-.79-5.32q-7.52-34.51-15.07-69a8.89,8.89,0,0,0,2.31-3q15.71-25.91,31.39-51.84,36.27-60,72.52-120,24.06-39.79,48.17-79.54,36.67-60.64,73.34-121.27a5.18,5.18,0,0,0,.23-5.79c-3-5.81-5.92-11.71-8.88-17.57-.84-1.67-1-2.67,1.32-3,12.4-1.71,24.79-3.54,37.18-5.34l71.54-10.36.47.06A132.8,132.8,0,0,0,1365.94,272.34Z" transform="translate(0 1)"/><path class="cls-3" d="M1101.87-.93h204.31c-.33,1-.59,2.12-1,3.13q-29.25,72-58.51,143.92-13.3,32.72-26.51,65.48a13.94,13.94,0,0,0-2.3,5.13c-1,3.95-3.42,5-7,5.46-21,2.55-41.91,5.33-62.86,8-22.73,3-45.47,5.88-68.19,8.92-5.53.74-11.12,1.05-16.55,2.49a20.86,20.86,0,0,0-2.55,0q-29.19,3.81-58.38,7.66c.38-14.32,1.23-28.62,2.19-42.91q.07-.22.13-.45c1.17-.4,2.37-.72,3.5-1.22q23-10.07,45.89-20.2,16.24-7.17,32.46-14.41a8.48,8.48,0,0,0,1.09-.32q44.6-19.6,89.2-39.22a14.62,14.62,0,0,0,2.14-1.43,25.52,25.52,0,0,0,3-.91c8-3.48,15.91-7.06,23.91-10.46,2.27-1,2.34-2,1.09-4q-18.75-29.9-37.36-59.9c-1.28-2.07-2.7-2.45-4.8-1.66-6,2.27-12,4.4-18,6.63a15.76,15.76,0,0,0-2.23,1.27c-4.26.64-8.18,2.49-12.16,4-4.7,1.81-9.64,3-14.06,5.56-2.51.18-4.76,1.3-7.08,2.15q-49.46,18.14-98.89,36.34c-2.19.81-2.77-.07-2.65-2.19.19-3.31.4-6.62.55-9.94.43-9,.78-18.09,1.25-27.12.9-17.07,1.86-34.13,2.79-51.2a17.39,17.39,0,0,0,2-.2q28.09-6,56.18-12C1082.26,3.45,1092.06,1.24,1101.87-.93Z" transform="translate(0 1)"/><path class="cls-4" d="M.05,560.73v-8.46c.56-.93,1.17-1.83,1.66-2.79q19.47-38.1,38.89-76.22c1.75-3.44,3.89-6.68,5-10.47h0l.71-.65a1,1,0,0,1,.41-.29c.82-.25,1.65-.45,2.45-.74,15.38-5.62,30.78-11.19,46.13-16.9,6.51-2.42,13.18-4.35,19.47-7.42a7.5,7.5,0,0,0,3-.86,123.35,123.35,0,0,1,14.94-5.25,16.25,16.25,0,0,0,3.38,3.69l15.4,15.83c1,2.58,3.37,3.75,5.09,5.57,18.75,19.76,37.14,39.92,56.35,59.19,0,1.51.06,3,.06,4.52q0,15.37,0,30.73c0,3.86.3,4.06,3.73,2.61,2.81-1.19,5.58-2.49,8.39-3.66,4.83-2,9.44-4.63,14.52-5.93,14.89,16.24,30.13,32.11,45.52,47.81,1.37,1.53,2.7,3.09,4.11,4.59q16.86,18,33.74,35.88Q311,649.33,299.09,667.15q-8.45,12.66-16.86,25.37c-3.9,5.7-7.83,11.38-11.69,17.11q-29.75,44.08-59.48,88.17c-.5.73-.76,1.84-2.15,2,0-1.65,0-3.14,0-4.64.34-18.83.81-37.65,1-56.48.27-26.38.58-52.76,1.19-79.14.26-11.27.17-22.55.45-33.83.55-22.15.59-44.31.81-66.46,0-4.1-.3-4.3-3.85-2.74L156,579.58q-20.09,8.79-40.17,17.58Q76.19,614.6,36.59,632.08a3.58,3.58,0,0,0-.53-.2,22.71,22.71,0,0,0-.85-2.23Q20,599.42,4.79,569.23C3.32,566.34,2.35,563.11.05,560.73Z" transform="translate(0 1)"/><path class="cls-5" d="M540.66,309.23c3.66-6.61,8.24-12.54,12.34-18.82,3.19-4.88,6.51-9.67,9.73-14.53.58-.87,1.43-1.64,1.34-3.38-3.32,1.17-6.53,2.25-9.71,3.41q-30.8,11.28-61.59,22.58c-5,1.84-10,3.71-15.06,5.52-3.25,1.17-3.79.8-3.54-2.71.57-7.73,1.25-15.44,1.89-23.16q1.59-19.1,3.18-38.19,1.61-19.4,3.21-38.8,1.53-18.5,3-37,1.61-19.4,3.22-38.79c1-12.53,2-25.07,3-37.6C492.83,75,493.93,62.12,495,49.29c1-12.53,2-25.07,3.05-37.6.35-4.21.76-8.42,1.14-12.62H622.1a17.8,17.8,0,0,0,1.29,5.55q9.67,31.14,19.37,62.28l-.29,1.72c-.52,1.18-1.1,2.33-1.55,3.55Q613.5,146.55,586.11,221c-5.55,15.1-11,30.23-16.53,45.34l.16-.08.11.16-.7.51-.57.65.06-.08c-.63.83-1.26,1.65-1.87,2.49-.48.66-.89,1.34.27,1.72,0,1.87-.84,3.47-1.45,5.14Q560,292.1,554.43,307.35l-.65.64C549.35,307.78,545.06,309.13,540.66,309.23Z" transform="translate(0 1)"/><path class="cls-6" d="M1365.94,656.25V840c-.94.14-1.88.24-2.8.44q-59.5,12.56-119,25.14c-13.46,2.85-26.91,5.81-40.36,8.73a1.24,1.24,0,0,1-.28-.1c-.23-1-.44-2-.71-2.92q-13.06-47.2-26.14-94.4-8.43-30.4-16.93-60.78a1.49,1.49,0,0,1,.14-.39c1-.22,2.06-.38,3.06-.67q90.92-26.49,181.85-53C1351.81,660.06,1358.76,657.66,1365.94,656.25Z" transform="translate(0 1)"/><path class="cls-7" d="M.05,229.41Q.05,115.54,0,1.67C0-.4.28-1,2.43-1q62.84.14,125.67.07l6.75,6.21.56,1a9.56,9.56,0,0,0-.44,4.16c.38,11.64.58,23.3,1.27,34.92.3,5.13.27,10.24.49,15.36.74,17.15,1.53,34.3,2.18,51.45.5,13.15.8,26.3,1.19,39.45a6.87,6.87,0,0,0,.6,2.92l-.59,2.3c-.58,1-1.19,2.06-1.74,3.11Q113.05,208.07,87.8,256.2c-1.3,2.5-2.4,2.73-4.81,1.89Q41.56,243.63.05,229.41Z" transform="translate(0 1)"/><path class="cls-8" d="M1014.29,17.79c-.93,17.07-1.9,34.13-2.79,51.2-.47,9-.83,18.08-1.25,27.12-.16,3.31-.36,6.63-.55,9.94-.12,2.11.45,3,2.65,2.19q49.43-18.22,98.89-36.34c2.32-.85,4.58-2,7.08-2.15a21.44,21.44,0,0,1-.5,2.65c-3.23,10.1-6.52,20.18-9.75,30.28q-10.8,33.73-21.56,67.47-16.23,7.21-32.46,14.41-22.93,10.13-45.89,20.2c-1.13.5-2.33.81-3.5,1.21-.19-10,1-19.88,1.27-29.83.2-7,.65-14.06,1-21.09.71-13.55,1.51-27.1,2.13-40.66.23-4.9-.06-5-4.35-3.45Q969.36,123.86,934,136.82c-12.46,4.57-24.85,9.33-37.35,13.76-9.89,3.5-19.59,7.62-29.66,10.54q-.24-29.27-.48-58.54-.41-51.75-.81-103.51h149.68Z" transform="translate(0 1)"/><path class="cls-5" d="M36.06,631.88a3.56,3.56,0,0,1,.53.2c.53,1.18,1,2.38,1.6,3.53q14,27.82,28.07,55.63,42.31,84,84.64,168c2.58,5.12,4.76,10.51,8.11,15.17l-.15,1.05c-7,10-13.86,20.16-20.52,30.44q-68,0-136,.06C.38,906,0,905.59,0,903.52Q.09,775.65.05,647.79c7.58-2.52,14.72-6.21,22.06-9.37C26.81,636.38,31.69,634.73,36.06,631.88Z" transform="translate(0 1)"/><path class="cls-9" d="M302.26-.93c-.35,15.39-.93,30.77-1.26,46.17-.27,12.27-.72,24.53-1.08,36.8q-.91,30.62-1.75,61.25-.49,17.95-1.06,35.9c-.63,20.82-1.29,41.63-1.78,62.45-.29,12.47-.75,24.94-1.11,37.41q-.59,20.67-1.22,41.33c-.17,5.53-.34,11.06-.41,16.59,0,4.08.53,4.68,4.24,4.21,8.09-1,16.16-2.18,24.25-3.23,16.64-2.15,33.29-4.24,49.93-6.4,12.79-1.66,25.56-3.41,38.35-5.09,2.44-.32,4.9-.53,7.34-.79-.78,1.34-2.17,1.54-3.4,2-9.32,3.39-18.67,6.74-28,10.15Q340,354.4,294.76,371c-3,1.1-3.52.82-3.27-2.47.63-8,.35-16.09.62-24.13.07-2.15-.68-2.68-2.47-2.44q-21.28,2.83-42.56,5.63c-10.43,1.35-20.87,2.63-31.3,3.94,0-6,.15-12.07.39-18.11.52-12.77-.06-25.56.58-38.36.62-12.46-.06-25,.56-37.45.63-12.66-.06-25.36.58-38.05.62-12.26.27-24.56.49-36.84.31-17.82.73-35.64.76-53.46,0-1.5.21-3-.46-4.46l.62-3c1.19-.66,1.57-2,2.15-3.1,1.74-3.46,3.45-6.94,5.21-10.38Q239.1,84,251.57,59.58c5.47-10.69,11-21.35,16.44-32.05,4.81-9.46,9.55-19,14.33-28.46Z" transform="translate(0 1)"/><path class="cls-8" d="M1159.73,716.15q8.47,30.39,16.93,60.78,13.09,47.19,26.14,94.4c.27,1,.47,1.95.71,2.92q-62.76,13.27-125.51,26.57c-7.61,1.62-15.31,2.82-22.78,5.12h-9.11a5.3,5.3,0,0,0-1.71-2.71c-4.93-5.44-9.94-10.79-14.86-16.24-12-13.3-24.27-26.34-36.4-39.5-6.43-7-12.8-14-19.25-21a6.24,6.24,0,0,1-1.82-4.85c.55-10.54,1.23-21.08,1.54-31.63.16-5.52,1.08-11,.56-16.56.19-1.17.9-2.24.65-3.51q0-.24,0-.49c1.76-.37,3.55-.62,5.28-1.11,15-4.32,29.9-8.75,44.88-13,7.94-2.26,15.75-5,23.85-6.67l.56.1c.17,1,.31,2,.52,3q7.14,32.65,14.29,65.29,2,9.12,4,18.23c.17.77.1,1.89.88,2.09,1,.27,1.18-1.06,1.72-1.68a5.53,5.53,0,0,0,.48-.75q34.6-55,69.19-110c.68-1.08,1.22-2.26,1.83-3.39h0l.47-.59.72-.67C1149.07,719.77,1154.24,717.27,1159.73,716.15Z" transform="translate(0 1)"/><path class="cls-10" d="M156,579.58l52.56-23.12c3.55-1.56,3.89-1.36,3.85,2.74-.23,22.16-.26,44.32-.81,66.46-.28,11.28-.19,22.56-.45,33.83-.61,26.38-.92,52.76-1.19,79.14-.2,18.83-.66,37.65-1,56.48,0,1.5,0,3,0,4.64,1.39-.11,1.65-1.22,2.15-2q29.75-44.07,59.48-88.17c3.87-5.73,7.79-11.41,11.69-17.11-.14,3.21-.36,6.43-.41,9.65-.19,12.28-.65,24.55-1.07,36.83-.73,21-1.21,42.06-1.81,63.1-.34,11.77-.74,23.54-1.06,35.32q-.93,34.27-1.8,68.54H207.21l1.85-103.84-.93-.16q-3.23,4.74-6.45,9.49l-34.81,51.46c-.19-1.39-.49-2.78-.55-4.18q-1.18-30.93-2.3-61.86-.85-22.93-1.7-45.87-1.14-30.63-2.28-61.26-1.14-30.78-2.28-61.56Q156.88,603.87,156,579.58Z" transform="translate(0 1)"/><path class="cls-11" d="M276.08,905.94q.89-34.27,1.8-68.54c.32-11.77.72-23.54,1.06-35.32.6-21,1.08-42.07,1.81-63.1.43-12.27.88-24.55,1.07-36.83,0-3.22.27-6.43.41-9.65q8.43-12.68,16.86-25.37,11.91-17.84,23.85-35.64h.45c6.34,7.21,13.13,13.92,19.72,20.85,19.13,20.08,38.14,40.31,57.19,60.47a12.49,12.49,0,0,0,3.24,2.9v1.51c-.54,1.28-1.14,2.54-1.62,3.85q-29.82,80.84-59.58,161.71c-2.82,7.68-6,15.22-8.22,23.14Z" transform="translate(0 1)"/><path class="cls-6" d="M749-.93h21.06q30,77.69,60.06,155.36c2.3,5.95,4.24,12.07,7.15,17.75a1.79,1.79,0,0,1-.13.44c-.91.24-1.85.41-2.74.74q-18.14,6.63-36.26,13.29L692.6,225.37l-.5-.08q-7.77-25-15.55-50a2.93,2.93,0,0,0-1.44-2.12l.45-2.38c.18-.57.4-1.13.52-1.72,3.81-18.45,7.56-36.92,11.44-55.36,2.41-11.46,4.41-23,7.32-34.37a7,7,0,0,0,2-2.47Q717.7,46,738.48,15.11C742,9.8,745.9,4.71,749-.93Z" transform="translate(0 1)"/><path class="cls-12" d="M1365.94,656.25c-7.19,1.41-14.14,3.81-21.17,5.86q-90.94,26.44-181.85,53c-1,.29-2,.45-3.06.67L1155.7,701c.45-.77.87-1.56,1.34-2.31q28.11-44.71,56.23-89.42c6.73-10.71,13.38-21.49,20.06-32.23l1.13-.89c.83-.21,1.67-.39,2.49-.63q48.2-14.18,96.39-28.36c10.86-3.19,21.74-6.28,32.61-9.41Z" transform="translate(0 1)"/><path class="cls-12" d="M.05,229.41Q41.53,243.72,83,258.09c2.42.84,3.51.61,4.81-1.89Q113,208,138.38,160c.55-1.05,1.16-2.07,1.74-3.11a15.6,15.6,0,0,1,.44,2.34q1.18,31.16,2.32,62.33.89,23.64,1.82,47.27l-.15,1c-.5.85-1,1.68-1.48,2.56q-9.63,18.83-19.24,37.67-14.53,28.53-29,57.08l-.92.67a102.19,102.19,0,0,0-18.16,2.46l-.78-.22c-.25-.3-.49-.61-.76-.9q-35.84-37.77-71.7-75.51c-.72-.76-1.3-1.76-2.43-2Z" transform="translate(0 1)"/><path class="cls-2" d="M1220.16,211.59q13.25-32.74,26.51-65.48,29.24-72,58.51-143.92c.41-1,.67-2.08,1-3.13h2.28c.12,1,.18,2,.38,3q8.5,40.54,17,81.07l25.3,120.27-.1.65c-.95,0-1.9,0-2.84.1q-32.53,4.22-65,8.48c-16.71,2.18-33.41,4.43-50.12,6.56C1224.07,220.33,1224.06,220.25,1220.16,211.59Z" transform="translate(0 1)"/><path class="cls-13" d="M974.8,770c.25,1.27-.46,2.33-.65,3.5a4.24,4.24,0,0,0-1.76,1.9c-5.52,9.16-11,18.33-16.61,27.43-1.1,1.79-.94,2.93.45,4.41,4.48,4.78,8.78,9.74,13.26,14.52a7.92,7.92,0,0,1,2.14,5.63c.15,4.85-.5,9.64-.67,14.46-.29,8.44-.75,16.87-1.21,25.3-.7,12.94-1.46,25.88-2.2,38.82H885c-3.81-5.89-8.45-11-12.92-16.33l-.41-1.61c.07-1.61.19-3.22.2-4.82.32-27.7-.39-55.39-.58-83.08l.27-.53c3.58-1,7.14-2,10.74-2.83,2.41-.56,3.6-2,4.37-4.5,4.28-13.75,8.7-27.46,13.08-41.18,1.17-3.66,1.33-3.72,3.89-1,9.09,9.83,18.19,19.65,27.19,29.57a4.41,4.41,0,0,0,5.29,1.43c3.89-1.28,7.82-2.4,11.76-3.52Q961.35,773.75,974.8,770Z" transform="translate(0 1)"/><path class="cls-6" d="M144.71,268.81q-.91-23.63-1.82-47.27-1.17-31.16-2.32-62.33a15.6,15.6,0,0,0-.44-2.34l.59-2.31c.65-.34.82-1,1.14-1.64q7.34-14,14.74-28c5.77-10.89,11.57-21.75,17.34-32.64C179.1,82.54,184.16,72.73,189.4,63c1.34-2.47,1.31-4.18-.82-6.15-6-5.54-11.85-11.27-17.77-16.91Q153.12,23.13,135.42,6.32l-.56-1q0-3.1.07-6.21h85.94q-.24,16.59-.47,33.19c-.3,22.43-.55,44.86-.9,67.28-.11,7.44-.53,14.87-.21,22.31l-.62,3c-.52.83-1.1,1.63-1.54,2.51q-28.22,55.24-56.42,110.5C155.42,248.18,150,258.48,144.71,268.81Z" transform="translate(0 1)"/><path class="cls-13" d="M334.13,905.94c2.22-7.92,5.4-15.46,8.22-23.14q29.72-80.88,59.58-161.71c.48-1.31,1.08-2.57,1.62-3.85,2.78,1.58,5,3.94,7.18,6.23,8.83,9.18,17.57,18.46,26.34,27.7l.05.62c0,.7,0,1.41-.08,2.11q-1.4,17-2.81,33.95Q433,802.44,431.83,817q-1.33,16.07-2.68,32.14c-.87,10.41-1.79,20.82-2.62,31.24-.68,8.51-1.28,17-1.91,25.55Z" transform="translate(0 1)"/><path class="cls-3" d="M1365.94,537.75c-10.87,3.13-21.75,6.23-32.61,9.41q-48.2,14.15-96.39,28.36c-.82.24-1.66.42-2.49.63.7-1.3,1.34-2.66,2.12-3.9q63.52-101,127.06-202c.67-1.07,1.15-2.34,2.3-3Z" transform="translate(0 1)"/><path class="cls-12" d="M837.28,172.18c-2.91-5.68-4.84-11.8-7.15-17.75Q800.06,76.77,770.07-.93h95.61q.41,51.75.81,103.51.23,29.27.48,58.54a1.17,1.17,0,0,0-.21.48Z" transform="translate(0 1)"/><path class="cls-4" d="M424.62,905.94c.63-8.52,1.23-17,1.91-25.55.84-10.42,1.75-20.83,2.62-31.24q1.35-16.07,2.68-32.14,1.21-14.57,2.41-29.14,1.41-17,2.81-33.95c.06-.7.06-1.41.08-2.11.92.86,1.87,1.69,2.75,2.6,12.53,13,24.81,26.26,37.35,39.27,19.31,20,38.25,40.46,57.34,60.72l-3.45,18.21-.59,1.33a11.26,11.26,0,0,0-1.26,1.19c-4.79,6.06-9.64,12.06-14.3,18.23-3.18,4.2-6.86,8-9.53,12.61Z" transform="translate(0 1)"/><path class="cls-12" d="M1203.78,874.35c13.45-2.91,26.9-5.87,40.36-8.73q59.49-12.61,119-25.14c.93-.2,1.87-.29,2.8-.44,0,21.16,0,42.32.06,63.48,0,2.07-.38,2.48-2.33,2.48q-75.69-.11-151.39-.06c-.1-.49-.17-1-.3-1.47Q1207.88,889.41,1203.78,874.35Z" transform="translate(0 1)"/><path class="cls-6" d="M819.59,905.94H704.06c0-8.92,0-17.85-.07-26.77-.1-10,.11-20-.5-30.06l.27-.55c1.29-.27,2.61-.45,3.88-.82q44.6-13,89.19-26l.38.21c.22,1,.4,2,.65,2.92q6.72,24.88,13.45,49.76C814.11,885.08,816.83,895.52,819.59,905.94Z" transform="translate(0 1)"/><path class="cls-3" d="M1351.18,203.39l-25.3-120.27q-8.52-40.53-17-81.07c-.2-1-.26-2-.38-3,18.4,0,36.8,0,55.2-.06,2,0,2.33.41,2.33,2.48q-.1,100.36-.05,200.72C1361,202.06,1356.16,203.85,1351.18,203.39Z" transform="translate(0 1)"/><path class="cls-13" d="M694.85,79.35c-2.91,11.34-4.91,22.9-7.32,34.37-3.88,18.44-7.63,36.9-11.44,55.36-.12.58-.34,1.14-.52,1.71-.43-1.12-.91-2.21-1.27-3.35q-15.08-47.91-30.15-95.83c-.35-1.12-.46-2.41-1.68-3l.29-1.72c.25-.54.55-1.06.76-1.62Q653.7,37.7,663.84,10.11c1.33-3.65,3-7.17,3.79-11h43.25c-.12,1.09-.16,2.21-.38,3.28-3.19,15.53-6.44,31.05-9.61,46.59C698.83,59.07,696.86,69.21,694.85,79.35Z" transform="translate(0 1)"/><path class="cls-10" d="M74.94,370.07l.78.22c3.31,4.39,7.45,7.94,11,12.08a25.25,25.25,0,0,1-1,2.78c-5.35,10.51-10.77,21-16.07,31.52-4.76,9.47-9.92,18.72-14.26,28.43l-.69.17L.05,453.11q0-36.58,0-73.15L22.3,377Z" transform="translate(0 1)"/><path class="cls-1" d="M703.48,849.11c.61,10,.4,20,.5,30.06.09,8.92.05,17.85.07,26.77H574.87l.59-19.46.44-.53c5.31-1.49,10.64-2.95,15.94-4.49q40.18-11.68,80.36-23.39C682.61,855,693.05,852.1,703.48,849.11Z" transform="translate(0 1)"/><path class="cls-14" d="M219.29,121.85c-.31-7.44.1-14.88.21-22.31.34-22.43.6-44.85.9-67.28q.22-16.59.47-33.19h61.47c-4.77,9.49-9.51,19-14.33,28.46-5.44,10.7-11,21.36-16.44,32.05Q239.1,84,226.65,108.36c-1.76,3.45-3.47,6.93-5.21,10.38C220.87,119.89,220.49,121.19,219.29,121.85Z" transform="translate(0 1)"/><path class="cls-9" d="M967.56,905.94c.74-12.94,1.5-25.88,2.2-38.82.46-8.43.92-16.86,1.21-25.3.16-4.82.82-9.61.67-14.46a7.92,7.92,0,0,0-2.14-5.63C965,817,960.71,812,956.23,807.22c-1.39-1.48-1.55-2.63-.45-4.41,5.6-9.1,11.09-18.28,16.61-27.43a4.24,4.24,0,0,1,1.76-1.9c.52,5.54-.4,11-.56,16.56-.31,10.55-1,21.09-1.54,31.63a6.24,6.24,0,0,0,1.82,4.85c6.45,7,12.81,14,19.25,21,12.14,13.16,24.4,26.2,36.4,39.5,4.92,5.45,9.93,10.81,14.86,16.24a5.3,5.3,0,0,1,1.71,2.71Z" transform="translate(0 1)"/><path class="cls-8" d="M819.59,905.94c-2.76-10.42-5.48-20.86-8.28-31.27q-6.69-24.89-13.45-49.76c-.26-1-.44-1.95-.65-2.92,5.6-2.43,11.62-3.38,17.32-5.46a3.7,3.7,0,0,0,1.08,2.69c2,2.52,4,5.08,6.06,7.6,13.23,16.42,26.42,32.88,39.75,49.21,3.33,4.08,6.15,8.69,10.31,12l.41,1.6q.2,8.17.4,16.33Z" transform="translate(0 1)"/><path class="cls-15" d="M74.94,370.07,22.3,377,.05,380q0-44.13,0-88.27c1.13.21,1.71,1.22,2.43,2q35.86,37.74,71.7,75.51C74.45,369.46,74.69,369.77,74.94,370.07Z" transform="translate(0 1)"/><path class="cls-15" d="M166.88,862.89l34.81-51.46q3.21-4.75,6.45-9.49l.93.16-1.85,103.84h-33a58.65,58.65,0,0,0-6.12-12.33l-9.21-18.11.15-1.05A80,80,0,0,0,166.88,862.89Z" transform="translate(0 1)"/><path class="cls-16" d="M1203.78,874.35q4.1,15.06,8.2,30.13c.13.48.2,1,.3,1.47H1055.2c7.48-2.3,15.17-3.5,22.78-5.12q62.74-13.35,125.51-26.57A1.27,1.27,0,0,0,1203.78,874.35Z" transform="translate(0 1)"/><path class="cls-11" d="M45.59,462.78c-1.09,3.79-3.23,7-5,10.47Q21.23,511.39,1.72,549.47c-.49,1-1.11,1.86-1.66,2.79V478.5c1.4.33,2.6-.4,3.83-.85Q23,470.7,42,463.71A8.34,8.34,0,0,1,45.59,462.78Z" transform="translate(0 1)"/><path class="cls-1" d="M36.06,631.88c-4.37,2.85-9.25,4.5-14,6.53-7.34,3.17-14.48,6.86-22.06,9.37V560.73c2.29,2.38,3.27,5.62,4.73,8.51q15.31,30.16,30.43,60.42A22.71,22.71,0,0,1,36.06,631.88Z" transform="translate(0 1)"/><path class="cls-14" d="M667.63-.93c-.76,3.87-2.45,7.4-3.79,11q-10.09,27.61-20.33,55.15c-.21.56-.5,1.08-.76,1.62q-9.69-31.14-19.37-62.28A17.8,17.8,0,0,1,622.1-.93Z" transform="translate(0 1)"/><path class="cls-14" d="M694.85,79.35c2-10.14,4-20.28,6.05-30.41,3.17-15.54,6.42-31.06,9.61-46.59.22-1.07.25-2.19.38-3.28H749c-3.11,5.64-7,10.73-10.53,16Q717.74,46,696.87,76.88A7,7,0,0,1,694.85,79.35Z" transform="translate(0 1)"/><path class="cls-15" d="M45.59,462.78a8.34,8.34,0,0,0-3.56.93q-19.08,7-38.15,13.95c-1.23.45-2.44,1.18-3.83.85V453.11l54.63-7.84c-2.34,5.71-5.81,10.79-8,16.59a1,1,0,0,0-.41.29l-.71.64Z" transform="translate(0 1)"/><path class="cls-12" d="M1014.29,17.79l1.08-18.72h86.51c-9.81,2.17-19.61,4.38-29.43,6.5q-28.08,6.06-56.18,12A17.39,17.39,0,0,1,1014.29,17.79Z" transform="translate(0 1)"/><path class="cls-6" d="M575.45,886.48l-.59,19.46H524.21l.65-4.81.51-.6c6.16-1.09,12.06-3.28,18.08-5C554.14,892.61,564.79,889.52,575.45,886.48Z" transform="translate(0 1)"/><path class="cls-12" d="M158.88,875.5l9.21,18.11-.14,12.33H138.35C145,895.66,151.83,885.49,158.88,875.5Z" transform="translate(0 1)"/><path class="cls-1" d="M1351.18,203.39c5,.46,9.8-1.33,14.76-1.18V256l-3.36.64-.47-.06c-1.43-9.62-3.78-19-5.78-28.53-1.69-8-3-16.13-5.25-24Z" transform="translate(0 1)"/><path class="cls-7" d="M525.37,900.54l-.51.6c-3.73,1-7.47,2.07-11.2,3.12-1,.28-2,.54-2.54,1.68h-5.69c2.68-4.63,6.36-8.4,9.53-12.61,4.66-6.17,9.51-12.17,14.3-18.23a11.26,11.26,0,0,1,1.26-1.19c-.12.88-.19,1.78-.36,2.65Q527.79,888.56,525.37,900.54Z" transform="translate(0 1)"/><path class="cls-9" d="M872.52,905.94q-.2-8.17-.4-16.33c4.48,5.29,9.11,10.45,12.92,16.33Z" transform="translate(0 1)"/><path class="cls-6" d="M167.94,905.94l.14-12.33a58.62,58.62,0,0,1,6.12,12.33Z" transform="translate(0 1)"/><path class="cls-13" d="M511.12,905.94c.5-1.14,1.54-1.4,2.54-1.68,3.73-1.05,7.47-2.08,11.2-3.12l-.65,4.81Z" transform="translate(0 1)"/><path class="cls-3" d="M1362.58,256.66l3.36-.64v16.32A132.8,132.8,0,0,1,1362.58,256.66Z" transform="translate(0 1)"/><path class="cls-12" d="M134.94-.93q0,3.1-.07,6.21L128.11-.93Z" transform="translate(0 1)"/><path class="cls-13" d="M509.42,905.94h0Z" transform="translate(0 1)"/><path class="cls-13" d="M215.78,351.56c10.43-1.31,20.87-2.59,31.3-3.94q21.29-2.76,42.56-5.63c1.79-.24,2.55.29,2.47,2.44-.27,8,0,16.09-.62,24.13-.26,3.29.28,3.56,3.27,2.47q45.29-16.6,90.56-33.23c9.32-3.42,18.66-6.76,28-10.15,1.23-.45,2.62-.64,3.4-2l6.22-1.23c5,.16,9.93-1,14.89-1.62,11.72-1.43,23.42-3,35.13-4.48h0c-.43,4.79-.88,9.58-1.28,14.37-.91,10.69-1.73,21.39-2.71,32.08-.56,6.09-.66,12.22-1.7,18.26-1.54-.53-2.79-1.84-4.51-1.89h0c.47,1.93,2.38,2.84,2.95,4.7-1.21.21-2.43.46-3.65.64q-38.71,5.55-77.42,11.09-45.74,6.58-91.48,13.2c-2,.28-2.7,1.25-2.89,3.32-.9,9.62-.56,19.29-1,28.93-.56,12.85-.79,25.72-1.17,38.59-.4,13.47-.51,26.94-1.22,40.4a5,5,0,0,0-.08.53,11.65,11.65,0,0,0-4.34,1.35c-11.3,5-22.63,9.85-33.88,14.93-3,1.37-6.32,2.2-9,4.4-5.09,1.3-9.69,3.92-14.52,5.93-2.82,1.17-5.58,2.47-8.39,3.66-3.44,1.45-3.73,1.25-3.73-2.61q0-15.37,0-30.73c0-1.51,0-3-.06-4.52a7.16,7.16,0,0,0,.62-3.52c-.4-18.71.66-37.4.62-56.1,0-9.85.31-19.7.55-29.54.06-2.62-.66-3.54-3.33-3.11-8.23,1.33-16.5,2.36-24.75,3.54q-17.86,2.55-35.72,5.13l-.49-.08-.06-7.2c.05-.17.09-.35.13-.53,1.38-.35,2.79-.59,4.12-1.08Q173,415.79,191.4,409c7-2.57,13.94-5.23,20.93-7.78a3.76,3.76,0,0,0,2.86-3.91q.2-22.64.48-45.27A3.54,3.54,0,0,1,215.78,351.56Z" transform="translate(0 1)"/><path class="cls-9" d="M467.26,383c1-6,1.14-12.17,1.7-18.26,1-10.68,1.81-21.39,2.71-32.08.41-4.79.85-9.58,1.28-14.37l41.62-5.5c6.75-.89,13.5-1.79,20.25-2.65,1.59-.2,3.2-.25,4.8-.37a15.66,15.66,0,0,1-.93,1.85q-20.23,30-40.46,60c-2.29,3.42-5,6.55-6.56,10.5l-1,.25c-6.57,1-13.2,1.46-19.69,3A11.85,11.85,0,0,1,467.26,383Z" transform="translate(0 1)"/><path class="cls-14" d="M491.67,382.2c1.55-3.95,4.27-7.08,6.56-10.5q20.17-30.06,40.46-60a15.66,15.66,0,0,0,.93-1.85l1-.59c4.4-.1,8.7-1.46,13.13-1.24-.29,1.06-.51,2.14-.88,3.16-4.13,11.24-8.3,22.46-12.41,33.71-3.91,10.68-7.76,21.37-11.64,32.06l-.51.69c-.88-.61-1.81-.32-2.75-.19Z" transform="translate(0 1)"/><path class="cls-9" d="M472.95,318.32c-11.71,1.5-23.42,3-35.13,4.48-5,.6-9.86,1.79-14.89,1.62,5.83-3,12.11-4.61,18.16-6.95,9.8-3.79,19.74-7.13,29.57-10.83,2.54-1,3.06,0,2.89,2.35C473.34,312.11,473.15,315.22,472.95,318.32Z" transform="translate(0 1)"/><path class="cls-13" d="M1351.08,204c2.2,7.9,3.55,16,5.25,24,2,9.49,4.36,18.91,5.78,28.53L1290.58,267c-12.39,1.79-24.78,3.63-37.18,5.34-2.29.31-2.17,1.32-1.32,3,3,5.86,5.84,11.76,8.88,17.57a5.18,5.18,0,0,1-.23,5.79Q1224,359.22,1187.38,419.9q-24.06,39.79-48.17,79.54-36.28,60-72.52,120-15.67,25.94-31.39,51.84a8.9,8.9,0,0,1-2.31,3c-1-1.7.06-3.13.64-4.55q25.61-63.06,51.25-126.11c3.83-9.42,7.55-18.88,11.32-28.32a71,71,0,0,0,4.57-11.39c.58-1.26,1.22-2.49,1.74-3.78q25.37-62.34,50.71-124.69,18.48-45.45,36.94-90.9c.55-1.35,2.22-3.41-1.34-2.88-13.89,2.05-27.79,4-41.68,6q-36.76,5.3-73.51,10.63c-9.38,1.36-18.76,2.8-28.13,4.21h-1.66l0-.07q7.45-23,14.88-45.94c1.59-4.95,3-10,4.52-14.93,5.44-1.44,11-1.75,16.55-2.49,22.72-3,45.46-6,68.19-8.92,20.95-2.72,41.89-5.49,62.86-8,3.57-.43,6-1.51,7-5.46a13.94,13.94,0,0,1,2.3-5.13c3.9,8.66,3.91,8.74,12.92,7.59,16.71-2.13,33.41-4.37,50.12-6.56q32.52-4.25,65-8.48C1349.18,204,1350.14,204.07,1351.08,204Z" transform="translate(0 1)"/><path class="cls-16" d="M1096.19,515.36c-3.77,9.44-7.5,18.91-11.32,28.33q-25.61,63.06-51.25,126.11c-.58,1.42-1.6,2.85-.64,4.55q7.54,34.5,15.07,69c.38,1.75,1,3.47.79,5.32-8.1,1.62-15.91,4.4-23.85,6.67-15,4.27-29.92,8.7-44.88,13-1.73.5-3.52.75-5.28,1.11.67-14,1.3-28,2-41.93q1.58-30.76,3.26-61.51c.68-12.66,1.43-25.32,2.07-38,.7-13.77,1.3-27.55,1.95-41.32l.5-.63c6.21-2.67,8.81-6.84,7.21-12.95A72.37,72.37,0,0,0,986,558.27l-.27-2.37c.4-6.31.85-12.62,1.21-18.93Q988,518.16,989,499.34c.49-9.74.88-19.48,1.31-29.21.58-9.94,1.2-19.88,1.74-29.83.47-8.74.82-17.49,1.26-26.23q1.06-20.65,2.19-41.29.66-12.36,1.3-24.72,1-19.44,2.06-38.87a2.83,2.83,0,0,0,.17-.48c15-1.59,29.94-3.83,44.85-6.19l0,.07c-.43,1.44-.83,2.89-1.29,4.32q-6.9,21.43-13.82,42.86a7.74,7.74,0,0,0-.05,5.82c4.38,10.16,8.66,20.37,13,30.56q14.3,33.89,28.59,67.79Q1083.19,484.65,1096.19,515.36Z" transform="translate(0 1)"/><path class="cls-7" d="M1233.32,577c-6.68,10.75-13.33,21.52-20.06,32.23Q1185.18,654,1157,698.69c-.47.75-.89,1.54-1.34,2.31l-.39.16c-1.25-7.35-3.65-14.36-5.62-21.5Q1136,630,1122.19,580.32a7.59,7.59,0,0,1-.46-4.19l7.4,17.41c1.28,3,2.64,6,3.81,9.1.89,2.32,2.2,2.88,4.46,2.2,12.76-3.83,25.55-7.56,38.33-11.33q27.25-8,54.51-16A21.54,21.54,0,0,1,1233.32,577Z" transform="translate(0 1)"/><path class="cls-13" d="M1142.31,721.56c-.61,1.13-1.15,2.31-1.83,3.39q-34.58,55-69.19,110a5.53,5.53,0,0,1-.48.75c-.55.62-.69,1.95-1.72,1.68-.78-.2-.71-1.33-.88-2.09q-2-9.11-4-18.23-7.15-32.65-14.29-65.29c-.21-1-.35-2-.52-3,3-2.15,6.57-2.48,9.92-3.46Q1097.6,734,1135.94,723A24.84,24.84,0,0,1,1142.31,721.56Z" transform="translate(0 1)"/><path class="cls-16" d="M1155.31,701.16l.39-.16,4.17,14.75a1.55,1.55,0,0,0-.14.39c-5.48,1.12-10.66,3.62-16.27,4.16Z" transform="translate(0 1)"/><path class="cls-13" d="M1142.74,721l-.47.59Z" transform="translate(0 1)"/><path class="cls-1" d="M866.77,161.6a1.17,1.17,0,0,1,.21-.48c10.07-2.92,19.77-7,29.66-10.54,12.5-4.43,24.9-9.19,37.35-13.76q35.36-13,70.73-25.88c4.29-1.57,4.58-1.45,4.35,3.45-.62,13.56-1.42,27.1-2.13,40.66-.37,7-.82,14.05-1,21.09-.28,10-1.45,19.86-1.27,29.83,0,.15-.08.3-.13.45q-23.63,10.36-47.26,20.72c-21.53,9.46-43,19-64.58,28.37-6.65,2.89-13.12,6.27-20.05,8.41-2.1-3.84-2.78-8.37-5.18-12.07l-.07-1.84Q867.52,205.8,866.77,161.6Z" transform="translate(0 1)"/><path class="cls-9" d="M1086.5,170.15q10.78-33.74,21.56-67.47c3.23-10.1,6.52-20.18,9.75-30.28a21.44,21.44,0,0,0,.5-2.65c4.42-2.6,9.36-3.75,14.06-5.56,4-1.54,7.9-3.39,12.16-4,.56,1.38,1,2.8,1.7,4.13q7.82,15.74,15.7,31.44c5.63,11.17,11.32,22.3,17,33.45a14.62,14.62,0,0,1-2.14,1.43q-44.59,19.64-89.2,39.22A8.48,8.48,0,0,1,1086.5,170.15Z" transform="translate(0 1)"/><path class="cls-1" d="M1043.85,302.51c-14.91,2.36-29.84,4.6-44.85,6.19.18-4.91.19-9.84.57-14.74,1.15-14.82,1.73-29.67,2.1-44.53l.67-.11q29.19-3.83,58.38-7.66a20.86,20.86,0,0,1,2.55,0c-1.5,5-2.93,10-4.52,14.93Q1051.34,279.56,1043.85,302.51Z" transform="translate(0 1)"/><path class="cls-8" d="M1002.33,249.32l-.67.11c-.85.06-1.7.09-2.54.2l-49,6.46-53.52,7c-6.48.85-12.95,1.79-19.44,2.52-1.61.18-3.75,1-4.52-1.7,6.93-2.14,13.41-5.52,20.05-8.41,21.56-9.38,43.05-18.91,64.58-28.37q23.62-10.38,47.26-20.72C1003.56,220.71,1002.71,235,1002.33,249.32Z" transform="translate(0 1)"/><path class="cls-8" d="M1178.92,129.18c-5.66-11.15-11.36-22.28-17-33.45Q1154,80,1146.23,64.29c-.66-1.32-1.14-2.75-1.7-4.13a15.76,15.76,0,0,1,2.23-1.27c6-2.23,12-4.36,18-6.63,2.1-.8,3.51-.41,4.8,1.66q18.61,30,37.36,59.9c1.26,2,1.18,3-1.09,4-8,3.4-15.94,7-23.91,10.46A25.52,25.52,0,0,1,1178.92,129.18Z" transform="translate(0 1)"/><path class="cls-11" d="M166.88,862.89A80,80,0,0,1,159,874.45c-3.35-4.67-5.53-10.05-8.11-15.18q-42.38-84-84.64-168-14-27.83-28.07-55.63c-.58-1.15-1.07-2.35-1.6-3.53q39.61-17.46,79.21-34.92,20.07-8.83,40.17-17.58.9,24.29,1.8,48.59,1.14,30.78,2.28,61.56,1.14,30.63,2.28,61.26.85,22.93,1.7,45.87,1.14,30.93,2.3,61.86C166.39,860.11,166.7,861.5,166.88,862.89Z" transform="translate(0 1)"/><path class="cls-1" d="M286.8,522.55a5,5,0,0,1,.08-.53l75.57-33.31q32.41-14.27,64.84-28.49c5.16-2.25,10.15-4.95,15.56-6.54-1,1.5-1.88,3-2.87,4.5q-18.87,28-37.76,56-32.3,47.91-64.6,95.82c-4.8,7.12-9.49,14.32-14.23,21.48h-.45q-16.87-17.94-33.73-35.89c-1.4-1.49-2.74-3.06-4.11-4.59-.07-9.46,1-18.9.67-28.37,0-1,0-2,.08-3C286.35,547.29,287.12,534.94,286.8,522.55Z" transform="translate(0 1)"/><path class="cls-14" d="M150.44,423.55q-.06.27-.13.53c-6,1.92-11.88,4.08-17.67,6.6a123.43,123.43,0,0,0-14.94,5.25,7.5,7.5,0,0,1-3,.86c-4.75,0-9.4,1.09-14.08,1.75-15.1,2.12-30.19,4.36-45.29,6.56,4.34-9.71,9.5-19,14.26-28.43,5.3-10.54,10.72-21,16.07-31.52a25.11,25.11,0,0,0,1-2.78c2.38-4.85,5.19-9.46,7.16-14.54l.92-.67c1.23,0,2.46,0,3.67-.13q24.73-3.23,49.46-6.51l.15.16c.1,9.33.77,18.65,1,28C149.39,400.29,149.93,411.92,150.44,423.55Z" transform="translate(0 1)"/><path class="cls-9" d="M150.85,431.35q17.86-2.57,35.72-5.13c8.25-1.18,16.52-2.21,24.75-3.54,2.67-.43,3.39.49,3.33,3.11-.24,9.85-.57,19.7-.55,29.54,0,18.71-1,37.4-.62,56.1a7.16,7.16,0,0,1-.62,3.52c-19.21-19.27-37.59-39.43-56.35-59.19-1.73-1.82-4.1-3-5.09-5.57A185.39,185.39,0,0,1,150.85,431.35Z" transform="translate(0 1)"/><path class="cls-9" d="M286.8,522.55c.32,12.38-.45,24.74-.95,37.1,0,1-.11,2-.08,3,.31,9.47-.74,18.9-.67,28.37-15.4-15.7-30.63-31.56-45.53-47.81,2.68-2.2,6-3,9-4.4,11.25-5.08,22.57-10,33.88-14.93A11.65,11.65,0,0,1,286.8,522.55Z" transform="translate(0 1)"/><path class="cls-11" d="M55.37,445.09c15.09-2.19,30.18-4.43,45.29-6.56,4.68-.66,9.33-1.71,14.08-1.75-6.29,3.07-13,5-19.47,7.42-15.35,5.71-30.75,11.28-46.13,16.9-.8.29-1.63.5-2.45.74,2.18-5.79,5.65-10.88,8-16.59Z" transform="translate(0 1)"/><path class="cls-1" d="M150.85,431.35a185.39,185.39,0,0,0,.57,18.84L136,434.37c.78-1,1.9-1.1,3-1.27,3.78-.57,7.55-1.21,11.32-1.82Z" transform="translate(0 1)"/><path class="cls-9" d="M150.36,431.28c-3.77.61-7.54,1.25-11.32,1.82-1.12.17-2.24.24-3,1.27a16.24,16.24,0,0,1-3.38-3.69c5.79-2.51,11.69-4.68,17.67-6.6Z" transform="translate(0 1)"/><path class="cls-11" d="M45.57,462.79l.71-.64Z" transform="translate(0 1)"/><path class="cls-7" d="M642.47,68.61c1.22.58,1.32,1.88,1.68,3q15.08,47.92,30.15,95.83c.36,1.14.84,2.23,1.27,3.35l-.45,2.38c-.22,1-.45,1.92-.65,2.88-2.41,11.79-4.88,23.56-7.21,35.36-1.63,8.23-3.68,16.36-4.82,24.7l-.51.62q-12.22,4.45-24.45,8.91-31.56,11.56-63.11,23.13c-2.05.75-4.05,1.73-6.29,1.78l.56-3.08-.06.08c.42,0,.49-.32.57-.65l.69-.49c-.16.05-.31.09-.46.13l.21-.22c5.51-15.12,11-30.25,16.53-45.34q27.38-74.41,54.81-148.8C641.37,70.94,642,69.79,642.47,68.61Z" transform="translate(0 1)"/><path class="cls-13" d="M528.85,376.92c3.88-10.69,7.73-21.38,11.64-32.06,4.12-11.24,8.29-22.47,12.41-33.71.37-1,.59-2.11.88-3.16l.65-.64c6.53-.33,13-1.55,19.44-2.37,16.44-2.09,32.86-4.25,49.3-6.35,8.92-1.14,17.84-2.22,26.77-3.33L644.41,323c-.82,4-1.72,8-2.45,12-1.58,8.75-4,17.31-5.07,26.17a21.86,21.86,0,0,0-1.67,7.28l-.63,1.12a14.2,14.2,0,0,0-5.13,1.68c-8.14,3.57-16.27,7.19-24.4,10.77-2.29,1-3.15.47-2.74-2.06.56-3.51.08-7.06.55-10.53.37-2.79-.43-3.2-2.83-2.85Q564.45,371.85,528.85,376.92Z" transform="translate(0 1)"/><path class="cls-2" d="M649.93,295.3c-8.92,1.11-17.85,2.19-26.77,3.33-16.43,2.1-32.86,4.26-49.3,6.35-6.48.82-12.91,2-19.44,2.37q5.59-15.26,11.16-30.53c.61-1.67,1.46-3.27,1.44-5.14l1-1.14c2.23,0,4.24-1,6.29-1.78q31.56-11.54,63.11-23.13,12.22-4.47,24.45-8.91c-.83,4.42-1.62,8.86-2.5,13.27q-4.51,22.38-9.07,44.74Z" transform="translate(0 1)"/><path class="cls-12" d="M568.08,270.54l-1,1.14c-1.16-.39-.75-1.06-.27-1.72.61-.84,1.25-1.66,1.87-2.49Z" transform="translate(0 1)"/><path class="cls-12" d="M569.58,266.3l-.21.22c.15,0,.3-.07.46-.13a1,1,0,0,0-.1-.17Z" transform="translate(0 1)"/><path class="cls-12" d="M569.15,266.89c-.08.33-.15.66-.57.65Z" transform="translate(0 1)"/><path class="cls-13" d="M135.42,6.32Q153.12,23.14,170.81,40c5.92,5.64,11.77,11.37,17.77,16.91,2.13,2,2.16,3.67.82,6.15-5.24,9.71-10.3,19.52-15.47,29.27-5.76,10.89-11.57,21.75-17.34,32.64q-7.41,14-14.74,28c-.32.62-.49,1.3-1.14,1.64a6.86,6.86,0,0,1-.6-2.92c-.38-13.15-.69-26.3-1.19-39.45-.65-17.15-1.45-34.3-2.18-51.45-.22-5.12-.18-10.23-.49-15.36-.69-11.62-.89-23.28-1.27-34.92A9.56,9.56,0,0,1,135.42,6.32Z" transform="translate(0 1)"/><path class="cls-14" d="M215.78,351.56a3.45,3.45,0,0,0-.1.51c-1.89.14-3.78.19-5.66.43q-12.82,1.61-25.62,3.32-18.15,2.41-36.3,4.86l-.15-.16c-.53-13.25-1.08-26.5-1.57-39.75q-.95-25.46-1.82-50.92l.15-1c5.34-10.32,10.72-20.62,16-31q28.23-55.24,56.42-110.5c.45-.88,1-1.67,1.54-2.51.67,1.42.46,3,.46,4.46,0,17.82-.45,35.65-.76,53.46-.21,12.28.13,24.58-.49,36.84-.64,12.69,0,25.39-.58,38.05-.62,12.49.06,25-.56,37.45-.64,12.79-.06,25.58-.58,38.36C215.92,339.49,215.76,345.52,215.78,351.56Z" transform="translate(0 1)"/><path class="cls-2" d="M984.12,586.74c-.64,13.77-1.25,27.55-1.95,41.32-.64,12.67-1.39,25.32-2.07,38q-1.65,30.75-3.26,61.51c-.72,14-1.34,27.95-2,41.93,0,.16,0,.33,0,.49q-13.44,3.81-26.89,7.62c-3.93,1.12-7.87,2.24-11.76,3.52a4.41,4.41,0,0,1-5.29-1.43c-9-9.92-18.1-19.74-27.19-29.57-2.56-2.77-2.72-2.71-3.89,1-4.38,13.72-8.79,27.43-13.08,41.18-.77,2.46-2,3.94-4.37,4.5-3.6.84-7.16,1.88-10.74,2.83-.05-1.2-.14-2.41-.15-3.61q-.3-40.21-.59-80.43c1.42-.1,2.25.93,3.1,1.87,3.08,3.41,6.12,6.88,9.22,10.26,5.23,5.69,10.54,11.3,15.74,17,2.12,2.33,2.26,2.38,3.3-.83q5.42-16.7,10.82-33.42,12.54-39,25-78.05c2.34-7.33,5-14.56,6.72-22.11v0l.56-.64.62-1.2a26.21,26.21,0,0,0,5.87-3Z" transform="translate(0 1)"/><path class="cls-5" d="M323.39,631.52c4.74-7.16,9.44-14.36,14.23-21.48q32.28-47.93,64.6-95.82,18.88-28,37.76-56c1-1.47,1.92-3,2.87-4.5l1.61-1.25c1.34-.49,2.69-.94,4-1.47,4.59-1.84,9-4.3,13.71-5.72,0,1.51,0,3-.14,4.52-1.24,14.93-2.51,29.87-3.75,44.8q-3.68,44.5-7.31,89c-.1,1.27-.52,2.6.29,3.81l-1.53,3.68Q431.15,641.51,412.55,692c-2.94,8-5.57,16-9,23.78a12.49,12.49,0,0,1-3.24-2.9c-19.06-20.16-38.06-40.39-57.19-60.47C336.52,645.44,329.73,638.72,323.39,631.52Z" transform="translate(0 1)"/><path class="cls-2" d="M403.55,715.74c3.43-7.74,6.06-15.83,9-23.78q18.66-50.42,37.18-100.9a5.35,5.35,0,0,1,.46,2.94q-.64,8-1.33,15.9c-.87,10.1-1.78,20.19-2.6,30.29-1,12.7-2,25.41-3,38.11s-2.18,25.19-3.24,37.79q-1.49,17.55-2.92,35.1c-8.77-9.24-17.52-18.51-26.34-27.7-2.2-2.29-4.4-4.66-7.18-6.23Q403.55,716.5,403.55,715.74Z" transform="translate(0 1)"/><path class="cls-14" d="M867.38,250l.07,1.84q0,7.43,0,14.86L864.37,268a5,5,0,0,0-3.07-.35c-6.77.88-13.54,1.8-20.3,2.69l-52.75,6.9c-16.36,2.13-32.71,4.32-49.09,6.36-9.22,1.15-18.39,2.74-27.66,3.36-4.76-15.15-9.6-30.26-14.23-45.45-1.63-5.34-3.74-10.53-4.66-16.1l105.55-38.73q18.13-6.65,36.26-13.29c.89-.32,1.82-.49,2.74-.74,7.58,19.62,15.09,39.27,22.76,58.84C862.34,237.67,864.31,244.09,867.38,250Z" transform="translate(0 1)"/><path class="cls-5" d="M692.6,225.37c.92,5.57,3,10.76,4.66,16.1,4.63,15.19,9.47,30.31,14.23,45.45q-.06.23-.12.46c-10.78,1.33-21.55,2.7-32.34,4-9.56,1.13-19.06,2.87-28.69,3.39q4.54-22.37,9.07-44.74c.89-4.41,1.67-8.85,2.5-13.27l.51-.62c10-3.24,19.87-6.92,29.67-10.82Z" transform="translate(0 1)"/><path class="cls-5" d="M867.38,250c-3.08-5.91-5-12.34-7.47-18.55-7.67-19.58-15.19-39.22-22.76-58.84a1.82,1.82,0,0,0,.13-.44l29.49-10.58Q867.58,205.8,867.38,250Z" transform="translate(0 1)"/><path class="cls-12" d="M692.11,225.29c-9.8,3.9-19.66,7.58-29.67,10.82,1.14-8.34,3.2-16.47,4.82-24.7,2.34-11.8,4.8-23.58,7.21-35.36.2-1,.43-1.92.65-2.88a2.93,2.93,0,0,1,1.44,2.12Q684.34,200.28,692.11,225.29Z" transform="translate(0 1)"/><path class="cls-5" d="M144.55,269.85q.91,25.46,1.82,50.92c.49,13.25,1,26.5,1.57,39.75q-24.73,3.26-49.46,6.51c-1.21.16-2.45.09-3.67.13q14.51-28.54,29-57.08,9.59-18.85,19.24-37.67C143.52,271.53,144.05,270.7,144.55,269.85Z" transform="translate(0 1)"/><path class="cls-6" d="M93.89,367.83c-2,5.08-4.79,9.69-7.16,14.54-3.56-4.14-7.69-7.69-11-12.08A102.19,102.19,0,0,1,93.89,367.83Z" transform="translate(0 1)"/><path class="cls-16" d="M870.87,715.54q.29,40.21.59,80.43c0,1.2.1,2.41.15,3.61l-.27.53c-1.1.29-2.2.56-3.29.88l-53.53,15.54c-5.7,2.08-11.71,3-17.32,5.46l-.38-.21c-1-3.76-1.83-7.55-2.9-11.28-2.67-9.37-4.78-18.92-7.88-28.16-.23-1.18-.37-2.38-.69-3.52q-22.64-83.49-45.3-167-7.79-28.7-15.63-57.38c-3.6-13.42-7.16-26.86-10.8-40.27-4.14-15.23-8.34-30.44-12.52-45.67a83.19,83.19,0,0,1-.43-10.55c0-21,0-42.07-.11-63.11,0-5.83-.78-11.64-.33-17.49,11.84-3.81,23.68-7.63,35.37-11.94a1.11,1.11,0,0,0,.38.18c.33,1.16.64,2.32,1,3.46l32.55,104.41q29.5,94.66,59,189.31c2.38,7.63,8.16,10,14.76,6.18,1.83-1.06,3.65-2.14,5.48-3.22q9.58-5.63,19.17-11.24c2.29-1.33,2.71-1,2.79,1.79,0,1.31,0,2.62,0,3.93Q870.82,687.89,870.87,715.54Z" transform="translate(0 1)"/><path class="cls-9" d="M814.51,816.53,868,801c1.09-.32,2.19-.59,3.29-.88.19,27.69.9,55.38.58,83.08,0,1.61-.13,3.22-.2,4.82-4.16-3.29-7-7.9-10.31-12-13.33-16.33-26.51-32.8-39.75-49.21-2-2.52-4-5.07-6.06-7.6A3.7,3.7,0,0,1,814.51,816.53Z" transform="translate(0 1)"/><path class="cls-7" d="M437.08,751.18q1.46-17.55,2.92-35.1c1.07-12.6,2.21-25.19,3.24-37.79s2-25.41,3-38.11c.82-10.1,1.74-20.19,2.6-30.29q.68-7.95,1.33-15.9a5.35,5.35,0,0,0-.46-2.94l1.54-3.68c.31-.95.6-1.91.95-2.84q13.81-37.51,27.63-75,13.42-36.37,26.89-72.73c1,1.16,2.16,2.26,3.14,3.48q18,22.23,35.89,44.49Q562,505,578.33,525.13c5.06,6.25,10.2,12.44,15.31,18.65.15,6.75-.57,13.46-.94,20.19-.15,2.7-.54,5.42.27,8.08l-1.12,7c-1.76,4.69-2.27,9.7-3.27,14.57q-23.57,113.9-47,227.84c-2.27,11-4.43,22-6.64,33l-.35-.07c-19.09-20.26-38-40.69-57.34-60.72-12.53-13-24.81-26.27-37.35-39.27-.88-.91-1.83-1.73-2.75-2.6Z" transform="translate(0 1)"/><path class="cls-12" d="M534.92,854.46c2.21-11,4.37-22,6.64-33q23.47-113.93,47-227.84c1-4.87,1.52-9.89,3.27-14.57-.64,8.78-.94,17.59-1.51,26.38q-1,15.88-1.69,31.79c-.53,12.31-1.28,24.61-1.83,36.93-.58,13-1.49,25.9-2.1,38.85-.58,12.22-1.42,24.43-1.9,36.66-.72,18.37-1.75,36.72-2.87,55.07-.55,8.91-.68,17.84-1.56,26.74-.75,7.58-.67,15.24-1,22.87-.47,10.56-1,21.11-1.49,31.67l-.44.53c-10.67,3-21.32,6.13-32,9.1-6,1.67-11.92,3.87-18.08,5q2.4-12,4.8-24c.17-.87.24-1.77.36-2.65l.59-1.33c1.42-1.73,2.88-3.43,4.26-5.2,1.68-2.15,4.5-4.28,4.63-6.56C540.17,858.22,536.61,856.7,534.92,854.46Z" transform="translate(0 1)"/><path class="cls-15" d="M534.92,854.46c1.68,2.25,5.25,3.77,5.09,6.37-.14,2.28-3,4.41-4.63,6.56-1.38,1.77-2.83,3.47-4.26,5.2l3.45-18.21Z" transform="translate(0 1)"/><path class="cls-8" d="M575.89,886c.5-10.56,1-21.11,1.49-31.67.34-7.62.27-15.29,1-22.87.88-8.9,1-17.83,1.56-26.74,1.12-18.34,2.15-36.7,2.87-55.07.48-12.23,1.32-24.44,1.9-36.66.61-12.95,1.52-25.9,2.1-38.85.55-12.31,1.3-24.61,1.83-36.93q.69-15.9,1.69-31.79c.57-8.79.87-17.6,1.51-26.38l1.12-7c.25-1.28.45-2.58.76-3.84,1.56-6.32,2.14-12.89,4.33-19,.8,1.12,1.54,2.29,2.4,3.36q7.57,9.42,15.18,18.8l35.87,44.51q17.84,22.14,35.68,44.29c5,6.18,10.08,12.29,15.12,18.42l.24.71c0,1.2-.11,2.41-.1,3.61q.44,55.53.89,111.07.22,27.31.41,54.62l-.27.55c-10.43,3-20.87,5.94-31.29,9Q632,869.75,591.83,881.47C586.53,883,581.21,884.46,575.89,886Z" transform="translate(0 1)"/><path class="cls-12" d="M703.75,848.56q-.21-27.31-.41-54.62-.44-55.53-.89-111.07c0-1.2.07-2.41.1-3.61.45.51.92,1,1.36,1.55q30.92,38.33,61.83,76.66c6.73,8.33,13.54,16.58,20.31,24.87,3.09,9.24,5.21,18.79,7.88,28.16,1.06,3.73,1.94,7.52,2.9,11.28q-44.59,13-89.19,26C706.36,848.11,705,848.29,703.75,848.56Z" transform="translate(0 1)"/><path class="cls-9" d="M444.47,452.44l-1.61,1.25c-5.4,1.59-10.4,4.29-15.56,6.54q-32.46,14.14-64.84,28.49L286.88,522c.71-13.46.82-26.93,1.22-40.4.38-12.86.61-25.74,1.17-38.59.42-9.64.08-19.31,1-28.93.19-2.07.94-3,2.89-3.32q45.75-6.56,91.48-13.2Q423.33,392,462,386.5c1.22-.17,2.43-.42,3.64-.64l1.66,1.86a7,7,0,0,0-.62,2.91c-.31,4.21-.77,8.41-1,12.62-.29,5.82-1.26,11.58-1.14,17.43l-.78,3.34a4.46,4.46,0,0,0-2.34,2.08c-3.84,5.75-7.77,11.43-11.54,17.24C448,446.31,445.52,448.89,444.47,452.44Z" transform="translate(0 1)"/><path class="cls-9" d="M148.09,360.68q18.15-2.43,36.3-4.86,12.81-1.7,25.62-3.32c1.88-.24,3.77-.29,5.66-.43q-.25,22.64-.48,45.27a3.76,3.76,0,0,1-2.86,3.91c-7,2.55-13.95,5.21-20.93,7.78q-18.41,6.76-36.84,13.44c-1.34.48-2.75.72-4.12,1.08-.51-11.63-1-23.26-1.34-34.9C148.86,379.33,148.19,370,148.09,360.68Z" transform="translate(0 1)"/><path class="cls-4" d="M467.35,387.72l-1.66-1.86c-.57-1.86-2.48-2.77-2.95-4.7h0c1.72.05,3,1.36,4.51,1.89a11.84,11.84,0,0,0,3.77,2.4,87.79,87.79,0,0,0,12.15,7.88l.07.54L478.52,401l-.42,0Z" transform="translate(0 1)"/><path class="cls-4" d="M462.74,381.17h0Z" transform="translate(0 1)"/><path class="cls-5" d="M483.26,393.86l-.07-.54c3-3.22,5.21-7.1,7.53-10.87l1-.25,33.91-4.78c.93-.13,1.86-.42,2.75.19L514.9,414c-2.75-1.77-5.48-3.58-8.26-5.3C498.81,403.8,491.27,398.4,483.26,393.86Z" transform="translate(0 1)"/><path class="cls-1" d="M490.72,382.45c-2.32,3.77-4.5,7.65-7.53,10.87A87.74,87.74,0,0,1,471,385.44C477.52,383.91,484.15,383.41,490.72,382.45Z" transform="translate(0 1)"/><path class="cls-2" d="M514.91,414l13.43-36.37.51-.69q35.59-5.14,71.18-10.32c2.41-.35,3.21.06,2.83,2.85-.46,3.47,0,7-.55,10.53-.41,2.54.45,3.07,2.74,2.06,8.14-3.59,16.26-7.2,24.4-10.77a14.18,14.18,0,0,1,5.13-1.68c-2.59,12.89-5.15,25.78-7.78,38.66q-7,34.22-14,68.43l-.41.07c-1.8-1.11-3.59-2.25-5.42-3.31-3.06-1.78-5.74-4.32-9.21-5.29l-.15-1.09c.76-12.53,1.63-25.06,2.25-37.6.68-13.85,1.24-27.71,2.26-41.54.3-4.09-.22-4.52-3.82-2.93q-26.66,11.72-53.3,23.49c-7.51,3.33-15.15,6.34-22.49,10.11-3.71.59-6.81,3-10.38,4Z" transform="translate(0 1)"/><path class="cls-3" d="M1045.48,302.57c9.38-1.41,18.75-2.85,28.13-4.21q36.75-5.34,73.51-10.63c13.89-2,27.8-4,41.68-6,3.56-.53,1.88,1.53,1.34,2.88q-18.44,45.46-36.94,90.9-25.35,62.35-50.71,124.69c-.52,1.29-1.16,2.52-1.74,3.78-.93-5.67-2.79-11.06-4.31-16.56q-20.6-74.44-41.21-148.88C1051.93,326.56,1048.31,314.68,1045.48,302.57Z" transform="translate(0 1)"/><path class="cls-8" d="M1045.48,302.57c2.83,12.12,6.44,24,9.75,36q20.55,74.46,41.21,148.88c1.52,5.49,3.38,10.89,4.31,16.56a70.93,70.93,0,0,1-4.57,11.39q-13-30.71-26-61.42-14.31-33.89-28.59-67.79c-4.3-10.2-8.58-20.4-13-30.56a7.74,7.74,0,0,1,.05-5.82q6.94-21.42,13.82-42.86c.46-1.43.86-2.88,1.29-4.32Z" transform="translate(0 1)"/><path class="cls-9" d="M867.47,266.7q0-7.43,0-14.86c2.4,3.7,3.08,8.23,5.18,12.07.77,2.74,2.92,1.88,4.52,1.7,6.49-.72,13-1.67,19.44-2.52l53.52-7,49-6.46c.84-.11,1.69-.13,2.54-.2-.37,14.86-.95,29.71-2.1,44.53-.38,4.9-.39,9.83-.57,14.74a2.78,2.78,0,0,1-.17.48c-.94.1-1.89.16-2.82.3-10.23,1.49-20.46,3-30.69,4.48q-32.81,4.7-65.63,9.37c-4,.58-4,.69-2.49,4.65q15.49,40.11,31,80.21,22.24,57.58,44.48,115.16l.06,1.16c-3.28,10.17-6.58,20.33-9.83,30.52q-8.5,26.7-16.94,53.42l-.62,1.2-.56.64v0a6.05,6.05,0,0,0-3.2,1.12q-33.87,19.82-67.73,39.65c-3.13,1.83-3.51,1.64-3.56-2-.31-24.66.2-49.33-.48-74-.71-25.66.1-51.34-.55-77-.7-27.67.14-55.37-.6-83.06-.43-16.1-.23-32.23-.08-48.34.11-11.78-.65-23.54-.55-35.32,0-2.28-.53-3.34-3-2.89-4,.73-8.06,1.22-12.11,1.69-5.55.64-11,2.21-16.63,2,2-.74,3.9-1.54,5.88-2.21,7.67-2.6,15.34-5.2,23-7.69,1.9-.62,2.79-1.57,2.75-3.81C867.73,301.12,868.24,283.9,867.47,266.7Z" transform="translate(0 1)"/><path class="cls-8" d="M972.67,523.36Q950.43,465.78,928.2,408.2q-15.49-40.11-31-80.21c-1.53-4-1.51-4.07,2.49-4.65q32.81-4.72,65.63-9.37c10.23-1.47,20.46-3,30.69-4.48.94-.14,1.88-.2,2.82-.3q-1,19.44-2.06,38.87-.65,12.36-1.3,24.72-1.1,20.64-2.19,41.29c-.45,8.74-.8,17.49-1.26,26.23-.53,9.94-1.15,19.88-1.74,29.83-.4,1-.85,2-1.18,3.06q-7.41,23.17-14.8,46.34A11.09,11.09,0,0,1,972.67,523.36Z" transform="translate(0 1)"/><path class="cls-13" d="M946,608.46q8.47-26.71,16.94-53.42c3.24-10.18,6.55-20.35,9.83-30.52a5.7,5.7,0,0,1,1.58,2.8c1.91,4.93,3.7,9.91,5.73,14.78,1.92,4.59,3.18,9.47,5.67,13.8l.27,2.37c-.75,9.26-1.43,18.53-1.37,27.83l-.5.63-32.28,18.77A26.21,26.21,0,0,1,946,608.46Z" transform="translate(0 1)"/><path class="cls-2" d="M985.71,555.9c-2.48-4.32-3.75-9.21-5.67-13.8-2-4.87-3.82-9.85-5.73-14.78a5.7,5.7,0,0,0-1.58-2.8l-.06-1.16a11.07,11.07,0,0,0,1.63-3.83q7.4-23.17,14.8-46.34c.33-1,.78-2,1.18-3.06-.43,9.74-.82,19.48-1.31,29.22q-1,18.82-2.05,37.63C986.56,543.28,986.11,549.59,985.71,555.9Z" transform="translate(0 1)"/><path class="cls-8" d="M984.61,586.1c-.06-9.31.62-18.57,1.37-27.83a72.36,72.36,0,0,1,5.84,14.88C993.43,579.26,990.83,583.43,984.61,586.1Z" transform="translate(0 1)"/><path class="cls-8" d="M612.79,476.68q7-34.21,14-68.43c2.63-12.88,5.19-25.77,7.78-38.66l.63-1.12A222.76,222.76,0,0,0,656.86,359c.23-.12.38-.43.57-.65L700,352.15l.2,25.24c-.45,5.84.31,11.66.33,17.49.09,21,.09,42.07.11,63.11a83.18,83.18,0,0,0,.43,10.55c0,5.94,0,11.88,0,17.82q.05,23.87.11,47.73c-1.08-.61-2.2-1.17-3.25-1.85q-38-24.51-76-49.07C618.86,481.12,615.43,479.52,612.79,476.68Z" transform="translate(0 1)"/><path class="cls-9" d="M700,352.15l-42.61,6.23-20.53,2.82c1.07-8.86,3.49-17.42,5.07-26.17.73-4,1.63-8,2.45-12,1.21-.25,2.43-.44,3.62-.76l48.25-12.95c3.47-.93,3.77-.67,3.79,3.16q.08,13.9.12,27.79,0,5.93,0,11.87Z" transform="translate(0 1)"/><path class="cls-14" d="M700.19,340.23q-.06-13.9-.12-27.79c0-3.83-.33-4.09-3.79-3.16L648,322.23c-1.19.32-2.41.51-3.62.76l5.52-27.69.41-.56c9.63-.51,19.13-2.25,28.69-3.38,10.78-1.27,21.56-2.64,32.34-4,.49,1.41,1,2.8,1.47,4.22q5.89,18.8,11.76,37.61,0,.34,0,.68c-1.07.39-2.16.72-3.2,1.17Q710.79,335.62,700.19,340.23Z" transform="translate(0 1)"/><path class="cls-1" d="M636.89,361.2l20.53-2.82c-.19.22-.34.54-.57.66a222.76,222.76,0,0,1-21.63,9.45A21.87,21.87,0,0,1,636.89,361.2Z" transform="translate(0 1)"/><path class="cls-8" d="M836.33,332c5.64.25,11.09-1.32,16.63-2,4-.46,8.1-1,12.11-1.69,2.43-.44,3,.61,3,2.89-.1,11.78.66,23.54.55,35.32-.15,16.11-.35,32.24.08,48.34.74,27.69-.1,55.38.6,83.06.65,25.68-.16,51.36.55,77,.68,24.67.18,49.33.48,74,0,3.69.43,3.88,3.56,2q33.86-19.84,67.73-39.65a6.05,6.05,0,0,1,3.2-1.12c-1.72,7.55-4.38,14.78-6.72,22.11q-12.43,39.06-25,78.05-5.38,16.72-10.82,33.42c-1,3.2-1.19,3.16-3.3.83-5.2-5.72-10.51-11.33-15.74-17-3.11-3.39-6.14-6.85-9.22-10.26-.85-.94-1.68-2-3.1-1.87q-.05-27.65-.11-55.3c0-1.31,0-2.62,0-3.93-.09-2.83-.51-3.12-2.79-1.79q-9.6,5.59-19.17,11.24c-1.83,1.07-3.65,2.15-5.48,3.22-6.6,3.83-12.39,1.45-14.76-6.18q-29.52-94.65-59-189.31L737,369.09c-.36-1.15-.67-2.31-1-3.46.44-.19.87-.41,1.32-.56l93.13-31.21,3.88-1.16,1.91-.57Z" transform="translate(0 1)"/><path class="cls-8" d="M944.79,610.31l.56-.64Z" transform="translate(0 1)"/><path class="cls-12" d="M506.73,436.8q-13.44,36.36-26.89,72.73-13.84,37.5-27.63,75c-.34.93-.63,1.89-.95,2.84-.81-1.2-.39-2.54-.29-3.8q3.63-44.51,7.31-89c1.23-14.93,2.51-29.87,3.75-44.8.12-1.5.1-3,.14-4.52l.78-.87,36.88-16.18a2.53,2.53,0,0,0,.51.09l6.33,7.93A3.77,3.77,0,0,0,506.73,436.8Z" transform="translate(0 1)"/><path class="cls-1" d="M463,444.38l-.78.87c-4.75,1.42-9.11,3.88-13.71,5.72-1.32.53-2.67,1-4,1.47,1.06-3.55,3.56-6.13,5.48-9.1,3.76-5.81,7.69-11.49,11.54-17.24a4.46,4.46,0,0,1,2.34-2.08,60.9,60.9,0,0,1-.24,6.59C463.39,435.2,462.27,439.75,463,444.38Z" transform="translate(0 1)"/><path class="cls-11" d="M836.33,332l-.11.09-1.91.57-3.88,1.16a4.58,4.58,0,0,0-3.06-.1c-25.79,3.73-51.6,7.4-77.38,11.19-6.46,1-13,1.44-19.36,3.06l-.33-.11-5.69-18q0-.34,0-.68c1.24-.48,2.51-.91,3.73-1.44l136-59.8,3.11-1.27c.77,17.2.26,34.42.54,51.63,0,2.24-.85,3.19-2.75,3.81-7.7,2.49-15.38,5.09-23,7.69C840.23,330.5,838.29,331.3,836.33,332Z" transform="translate(0 1)"/><path class="cls-9" d="M864.37,268l-136,59.8c-1.22.54-2.49,1-3.73,1.44q-5.88-18.8-11.76-37.61c-.45-1.42-1-2.81-1.47-4.22q.06-.23.12-.46c9.27-.62,18.45-2.21,27.66-3.36,16.37-2,32.73-4.23,49.09-6.36L841,270.3c6.77-.89,13.53-1.8,20.3-2.69A5,5,0,0,1,864.37,268Z" transform="translate(0 1)"/><path class="cls-15" d="M786,782.33c-6.77-8.29-13.58-16.54-20.31-24.87q-30.94-38.31-61.83-76.66c-.43-.53-.9-1-1.36-1.55l-.24-.71c0-1.21.11-2.41.1-3.62q-.25-35.36-.51-70.73-.23-34.76-.4-69.52c5.79,3.4,11.58,6.75,16,12.26,2.13,2.67,4.62,5,7,7.52q7.82,28.69,15.63,57.38,22.67,83.48,45.3,167C785.67,780,785.82,781.15,786,782.33Z" transform="translate(0 1)"/><path class="cls-6" d="M730.63,348c6.37-1.61,12.9-2.11,19.36-3.06,25.79-3.79,51.59-7.46,77.38-11.19a4.58,4.58,0,0,1,3.06.1L737.3,365.06c-.45.15-.88.37-1.32.56a1.14,1.14,0,0,1-.38-.18Z" transform="translate(0 1)"/><path class="cls-12" d="M724.43,554.46c-2.33-2.49-4.82-4.84-7-7.52-4.39-5.51-10.18-8.86-16-12.26l-.28-.61q-.06-23.87-.11-47.73c0-5.94,0-11.88,0-17.82,4.18,15.22,8.38,30.43,12.52,45.67C717.27,527.6,720.83,541,724.43,554.46Z" transform="translate(0 1)"/><path class="cls-12" d="M730.63,348l5,17.43c-11.69,4.31-23.53,8.13-35.36,11.95q-.1-12.62-.2-25.24l.21-.05,30.06-4.2Z" transform="translate(0 1)"/><path class="cls-4" d="M506.73,436.8a3.78,3.78,0,0,1,0-.59,129.5,129.5,0,0,0,4.77-12.74l.67-.87c3.57-1,6.67-3.41,10.38-4,1,.75,2,1.56,3,2.24,17,11,33.88,22,50.9,32.88,7,4.5,13.87,9.39,21.21,13.35l.14,1.09q-2.06,37.81-4.13,75.62c-5.1-6.21-10.24-12.4-15.31-18.65Q562,505,545.76,484.77q-17.94-22.25-35.89-44.49C508.89,439.06,507.78,438,506.73,436.8Z" transform="translate(0 1)"/><path class="cls-13" d="M593.63,543.78q2.06-37.81,4.13-75.62c3.47,1,6.15,3.5,9.21,5.29,1.83,1.06,3.61,2.2,5.42,3.31-.18,1.39-.29,2.8-.57,4.17-2.75,13.39-5.58,26.75-8.27,40.15-1.87,9.35-4.28,18.59-5.49,28.09-2.19,6.16-2.76,12.72-4.33,19-.31,1.26-.51,2.56-.76,3.84-.82-2.67-.42-5.39-.28-8.09C593.07,557.24,593.78,550.53,593.63,543.78Z" transform="translate(0 1)"/><path class="cls-7" d="M598.06,549.17c1.21-9.5,3.62-18.74,5.49-28.09,2.69-13.4,5.52-26.76,8.27-40.15.28-1.37.38-2.78.57-4.17l.4-.07c2.64,2.84,6.07,4.44,9.2,6.47q37.94,24.62,76,49.07c1,.68,2.16,1.24,3.25,1.85l.28.61q.2,34.76.4,69.52.23,35.36.51,70.73c0,1.21-.07,2.41-.1,3.62-5-6.14-10.12-12.24-15.12-18.43Q669.32,638,651.51,615.84l-35.87-44.51q-7.58-9.41-15.18-18.8C599.6,551.46,598.86,550.29,598.06,549.17Z" transform="translate(0 1)"/><path class="cls-5" d="M463,444.38c-.68-4.63.43-9.17.62-13.76a60.91,60.91,0,0,0,.24-6.59l.78-3.34c5.13-6.07,9.33-12.87,13.49-19.69l.42,0c2.78,4.3,6.29,8,9.38,12,3.92,5.12,8.31,9.81,11.94,15.18Z" transform="translate(0 1)"/><path class="cls-1" d="M478.1,401c-4.17,6.82-8.36,13.62-13.49,19.69-.13-5.85.85-11.61,1.14-17.43.21-4.21.67-8.41,1-12.62a7,7,0,0,1,.62-2.91Z" transform="translate(0 1)"/><path class="cls-11" d="M499.84,428.2c-3.63-5.37-8-10.06-11.94-15.18-3.09-4-6.6-7.69-9.38-12l4.73-7.16c8,4.54,15.55,9.95,23.39,14.82,2.78,1.73,5.51,3.53,8.26,5.3l-2.78,8.63-.67.87a59.2,59.2,0,0,0-11.09,4.81A2.53,2.53,0,0,1,499.84,428.2Z" transform="translate(0 1)"/><path class="cls-7" d="M597.62,467.08c-7.34-4-14.17-8.85-21.21-13.35-17-10.87-33.94-21.9-50.9-32.88-1-.68-2-1.49-3-2.24,7.34-3.77,15-6.79,22.49-10.11Q571.63,396.7,598.3,385c3.6-1.58,4.12-1.15,3.82,2.93-1,13.83-1.57,27.69-2.26,41.54C599.24,442,598.38,454.54,597.62,467.08Z" transform="translate(0 1)"/><path class="cls-6" d="M730.3,347.9l-30.06,4.2q0-5.93,0-11.87,10.61-4.59,21.23-9.17c1-.45,2.13-.78,3.2-1.17Z" transform="translate(0 1)"/><path class="cls-9" d="M834.31,332.7l1.91-.57Z" transform="translate(0 1)"/><path class="cls-15" d="M500.35,428.29a59.2,59.2,0,0,1,11.09-4.81,129.5,129.5,0,0,1-4.77,12.74Z" transform="translate(0 1)"/></svg>