<svg width="323px" height="300px" viewBox="256 106 323 300" version="1.1" xmlns="http://www.w3.org/2000/svg" xmlns:xlink="http://www.w3.org/1999/xlink">
    <!-- Generator: Sketch 41.2 (35397) - http://www.bohemiancoding.com/sketch -->
    <desc>Created with Sketch.</desc>
    <defs></defs>
    <polygon id="Shape" stroke="none" fill="#00B3E3" fill-rule="evenodd" points="373.9 209.6 421.7 227.6 421.9 228 407.9 232.4 379.5 220.4 373.1 228.3"></polygon>
    <polygon id="Shape" stroke="none" fill="#00B3E3" fill-rule="evenodd" points="424.8 254.3 424.1 266.5 418 260.6"></polygon>
    <g id="Group" stroke="none" stroke-width="1" fill="none" fill-rule="evenodd" transform="translate(315.000000, 106.000000)">
        <polygon id="Shape" points="109.1 160.5 109.8 148.3 103 154.6"></polygon>
        <path d="M135.2,49.8 L162.2,41.3 C159.5,37 156.4,33 153,29.4 L135.1,36.6 L135.2,49.8 Z" id="Shape" fill="#00B3E3"></path>
        <path d="M25.6,27.6 C25.5,27.7 25.3,27.9 25.2,28 L25.6,28.5 L25.6,27.6 Z" id="Shape"></path>
        <path d="M70.7,11.4 L71.1,2.9 C69.5,3.2 67.8,3.6 66.2,4 C65.2,4.3 64.1,4.6 63.1,4.9 L62.6,17.6 L70.7,11.4 Z" id="Shape" fill="#00B3E3"></path>
        <polygon id="Shape" points="106.7 121.6 58.9 103.6 58.1 122.3 64.5 114.4 92.9 126.4 106.9 122"></polygon>
        <path d="M101.1,105.5 C100.1,106.3 99,107 97.8,107.7 L104.2,114.5 L101.1,105.5 Z" id="Shape" fill="#00B3E3"></path>
        <path d="M31.3,132.4 L20.5,144.7 C23.7,148.6 27.3,152.2 31.1,155.5 L32.5,153.8 L31.3,132.4 Z" id="Shape" fill="#00B3E3"></path>
        <path d="M84,1.3 C79.7,1.5 75.4,2.1 71,2.9 L70.6,11.4 L84,1.3 Z" id="Shape" fill="#3FAE2A"></path>
        <polygon id="Shape" fill="#3FAE2A" points="115.7 44.4 108.9 47.1 116.5 28.8 117.5 11.2 94.8 60.4 92.3 63.3 115 56.2"></polygon>
        <polygon id="Shape" fill="#00833E" points="64.9 71.8 76 68.4 68.4 67.3 70.7 11.4 62.5 17.6 60.4 66.9"></polygon>
        <path d="M29.9,106.4 L4.9,115.9 C8.4,126.7 13.7,136.3 20.5,144.6 L31.3,132.3 L29.9,106.4 Z" id="Shape" fill="#00833E"></path>
        <path d="M0.9,81.8 C0.6,85.2 0.5,88.5 0.7,92 L15.6,87.3 L0.9,81.8 Z" id="Shape" fill="#00833E"></path>
        <path d="M68.4,67.3 L76,68.3 L92.3,63.2 L94.8,60.3 L117.5,11.1 L117.8,6.1 C107.1,2.3 95.7,0.5 84,1.1 L70.7,11.2 L68.4,67.3 Z" id="Shape" fill="#FBEE28"></path>
        <path d="M68.4,67.3 L76,68.3 L92.3,63.2 L94.8,60.3 L117.5,11.1 L117.8,6.1 C107.1,2.3 95.7,0.5 84,1.1 L70.7,11.2 L68.4,67.3 Z" id="Shape" fill="#006F42"></path>
        <polygon id="Shape" fill="#0069A6" points="57.2 103 31.3 132.4 32.5 153.7 58.1 122.3 58.9 103.6"></polygon>
        <path d="M34.9,38.7 L62.6,17.6 L63.1,4.9 C48.4,9.3 35.7,17.3 25.6,27.6 L25.6,28.5 L34.9,38.7 Z" id="Shape" fill="#0069A6"></path>
        <polygon id="Shape" fill="#90BC4B" points="48 99.5 29.9 106.4 31.3 132.4 57.2 103"></polygon>
        <polygon id="Shape" fill="#19ABCE" points="48 99.5 29.9 106.4 31.3 132.4 57.2 103"></polygon>
        <polygon id="Shape" fill="#90BC4B" points="62.5 17.6 34.9 38.7 60.4 66.9"></polygon>
        <polygon id="Shape" fill="#144733" points="62.5 17.6 34.9 38.7 60.4 66.9"></polygon>
        <path d="M25.6,28.5 L25.2,28 C16.1,37.5 9.2,48.9 5,61.4 L26.5,45 L25.6,28.5 Z" id="Shape" fill="#144733"></path>
        <path d="M59,101 L58.9,103.6 L106.7,121.6 L104.2,114.5 L97.8,107.7 C96.5,108.4 95.1,109 93.6,109.4 C82.6,112.3 71.4,105.6 68.5,94.3 C68.3,93.5 68.1,92.7 68,91.9 L66.5,92.5 L59,101 Z" id="Shape" fill="#144733"></path>
        <path d="M28.6,83.2 L26.5,45.1 L5,61.5 C2.8,68 1.4,74.9 0.9,81.8 L15.5,87.3 L28.6,83.2 Z" id="Shape" fill="#90BC4B"></path>
        <path d="M28.6,83.2 L26.5,45.1 L5,61.5 C2.8,68 1.4,74.9 0.9,81.8 L15.5,87.3 L28.6,83.2 Z" id="Shape" fill="#183029"></path>
        <polygon id="Shape" fill="#90BC4B" points="60.2 73.3 64.9 71.8 60.4 66.9"></polygon>
        <polygon id="Shape" fill="#144733" points="60.2 73.3 64.9 71.8 60.4 66.9"></polygon>
        <polygon id="Shape" fill="#90BC4B" points="66.5 92.5 59.2 95.2 59 101"></polygon>
        <polygon id="Shape" fill="#144733" points="66.5 92.5 59.2 95.2 59 101"></polygon>
        <polygon id="Shape" fill="#19ABCE" points="58.9 103.6 59 101 57.2 103"></polygon>
        <polygon id="Shape" fill="#19ABCE" points="25.6 28.5 26.5 45.1 34.9 38.7"></polygon>
        <polygon id="Shape" fill="#90BC4B" points="60.4 66.9 34.9 38.7 26.5 45.1 28.6 83.2 60.2 73.3"></polygon>
        <polygon id="Shape" fill="#19ABCE" points="60.4 66.9 34.9 38.7 26.5 45.1 28.6 83.2 60.2 73.3"></polygon>
        <polygon id="Shape" fill="#1E252B" points="60.4 66.9 34.9 38.7 26.5 45.1 28.6 83.2 60.2 73.3"></polygon>
        <polygon id="Shape" fill="#90BC4B" points="57.2 103 59 101 59.2 95.2 48 99.5"></polygon>
        <polygon id="Shape" fill="#19ABCE" points="57.2 103 59 101 59.2 95.2 48 99.5"></polygon>
        <polygon id="Shape" fill="#183029" points="57.2 103 59 101 59.2 95.2 48 99.5"></polygon>
        <path d="M113.9,144.4 L109.8,148.2 L109.1,160.4 L119.9,170.9 C121.1,170.5 122.2,170 123.3,169.5 L114.7,144.7 L113.9,144.4 Z" id="Shape" fill="#4C8B2B"></path>
        <polygon id="Shape" fill="#3FAE2A" points="135.2 49.8 135.1 36.6 124.2 41 121.2 54.2"></polygon>
        <path d="M132.7,13.2 C132,12.8 131.4,12.5 130.7,12.1 L130,15.3 L132.7,13.2 Z" id="Shape" fill="#006F42"></path>
        <polygon id="Shape" fill="#FBEE28" points="115 56.2 121.2 54.2 124.2 41 115.7 44.4"></polygon>
        <polygon id="Shape" fill="#006F42" points="115 56.2 121.2 54.2 124.2 41 115.7 44.4"></polygon>
        <path d="M116.5,28.8 L118.4,24.2 L129.9,15.3 L130.6,12.1 C127,10.1 123.3,8.4 119.4,6.9 L117.4,11.3 L116.5,28.8 Z" id="Shape" fill="#FBEE28"></path>
        <path d="M116.5,28.8 L118.4,24.2 L129.9,15.3 L130.6,12.1 C127,10.1 123.3,8.4 119.4,6.9 L117.4,11.3 L116.5,28.8 Z" id="Shape" fill="#00833E"></path>
        <path d="M119.5,6.9 C118.9,6.7 118.3,6.5 117.8,6.3 L117.5,11.3 L119.5,6.9 Z" id="Shape" fill="#FBEE28"></path>
        <path d="M119.5,6.9 C118.9,6.7 118.3,6.5 117.8,6.3 L117.5,11.3 L119.5,6.9 Z" id="Shape" fill="#90BC4B"></path>
        <path d="M119.5,6.9 C118.9,6.7 118.3,6.5 117.8,6.3 L117.5,11.3 L119.5,6.9 Z" id="Shape" fill="#144733"></path>
        <polygon id="Shape" fill="#00833E" points="135.2 58.2 162.2 41.4 135.2 49.8"></polygon>
        <path d="M167.9,51.8 C166.2,48.2 164.3,44.7 162.2,41.4 L135.2,58.2 L167.9,51.8 Z" id="Shape" fill="#90BC4B"></path>
        <path d="M167.9,51.8 C166.2,48.2 164.3,44.7 162.2,41.4 L135.2,58.2 L167.9,51.8 Z" id="Shape" fill="#026937"></path>
        <polygon id="Shape" fill="#FBEE28" points="92.3 63.3 88.6 67.5 114.6 62.3 115 56.2"></polygon>
        <polygon id="Shape" fill="#026937" points="92.3 63.3 88.6 67.5 114.6 62.3 115 56.2"></polygon>
        <path d="M29.1,92.4 L15.5,87.3 L0.6,92 C0.8,98.4 1.7,104.8 3.4,111.2 C3.8,112.8 4.3,114.4 4.8,115.9 L29.8,106.4 L29.1,92.4 Z" id="Shape" fill="#90BC4B"></path>
        <path d="M29.1,92.4 L15.5,87.3 L0.6,92 C0.8,98.4 1.7,104.8 3.4,111.2 C3.8,112.8 4.3,114.4 4.8,115.9 L29.8,106.4 L29.1,92.4 Z" id="Shape" fill="#026937"></path>
        <path d="M64.9,71.8 L70.7,78.2 C73.1,74.1 76.8,70.8 81.5,69.1 L76,68.4 L64.9,71.8 Z" id="Shape" fill="#90BC4B"></path>
        <path d="M64.9,71.8 L70.7,78.2 C73.1,74.1 76.8,70.8 81.5,69.1 L76,68.4 L64.9,71.8 Z" id="Shape" fill="#026937"></path>
        <path d="M76,68.4 L81.5,69.1 C82,68.9 82.6,68.7 83.2,68.6 L83.3,68.6 L83.3,68.6 L84.2,68.4 L84.3,68.4 L88.6,67.6 L92.3,63.4 L76,68.4 Z" id="Shape" fill="#FBEE28"></path>
        <path d="M76,68.4 L81.5,69.1 C82,68.9 82.6,68.7 83.2,68.6 L83.3,68.6 L83.3,68.6 L84.2,68.4 L84.3,68.4 L88.6,67.6 L92.3,63.4 L76,68.4 Z" id="Shape" fill="#90BC4B"></path>
        <path d="M76,68.4 L81.5,69.1 C82,68.9 82.6,68.7 83.2,68.6 L83.3,68.6 L83.3,68.6 L84.2,68.4 L84.3,68.4 L88.6,67.6 L92.3,63.4 L76,68.4 Z" id="Shape" fill="#144733"></path>
        <polygon id="Shape" fill="#90BC4B" points="29.1 92.4 29.9 106.4 48 99.5"></polygon>
        <polygon id="Shape" fill="#19ABCE" points="29.1 92.4 29.9 106.4 48 99.5"></polygon>
        <polygon id="Shape" fill="#144733" points="29.1 92.4 29.9 106.4 48 99.5"></polygon>
        <path d="M68,91.9 C68,91.6 67.9,91.2 67.9,90.9 L66.5,92.5 L68,91.9 Z" id="Shape" fill="#19ABCE"></path>
        <polygon id="Shape" fill="#90BC4B" points="15.5 87.3 29.1 92.4 28.6 83.2"></polygon>
        <polygon id="Shape" fill="#F1582A" points="15.5 87.3 29.1 92.4 28.6 83.2"></polygon>
        <polygon id="Shape" fill="#1E252B" points="15.5 87.3 29.1 92.4 28.6 83.2"></polygon>
        <path d="M60.2,73.3 L59.3,95.2 L66.6,92.4 L68,90.8 C67.6,86.3 68.6,81.9 70.8,78.1 L65,71.7 L60.2,73.3 Z" id="Shape" fill="#90BC4B"></path>
        <path d="M60.2,73.3 L59.3,95.2 L66.6,92.4 L68,90.8 C67.6,86.3 68.6,81.9 70.8,78.1 L65,71.7 L60.2,73.3 Z" id="Shape" fill="#F1582A"></path>
        <path d="M60.2,73.3 L59.3,95.2 L66.6,92.4 L68,90.8 C67.6,86.3 68.6,81.9 70.8,78.1 L65,71.7 L60.2,73.3 Z" id="Shape" fill="#1E252B"></path>
        <polygon id="Shape" fill="#90BC4B" points="59.2 95.2 60.2 73.3 28.6 83.2 29.1 92.4 48 99.5"></polygon>
        <polygon id="Shape" fill="#19ABCE" points="59.2 95.2 60.2 73.3 28.6 83.2 29.1 92.4 48 99.5"></polygon>
        <polygon id="Shape" fill="#F1582A" points="59.2 95.2 60.2 73.3 28.6 83.2 29.1 92.4 48 99.5"></polygon>
        <polygon id="Shape" fill="#111820" points="59.2 95.2 60.2 73.3 28.6 83.2 29.1 92.4 48 99.5"></polygon>
        <polygon id="Shape" fill="#F3A81D" points="121.2 54.2 119.6 61.3 135.2 58.2 135.2 49.8"></polygon>
        <polygon id="Shape" fill="#00833E" points="121.2 54.2 119.6 61.3 135.2 58.2 135.2 49.8"></polygon>
        <polygon id="Shape" fill="#FBEE28" points="115 56.2 114.6 62.3 119.6 61.3 121.2 54.2"></polygon>
        <polygon id="Shape" fill="#F3A81D" points="115 56.2 114.6 62.3 119.6 61.3 121.2 54.2"></polygon>
        <polygon id="Shape" fill="#144733" points="115 56.2 114.6 62.3 119.6 61.3 121.2 54.2"></polygon>
        <polygon id="Shape" fill="#0069A6" points="110.7 133 106.9 122 92.9 126.4 110.6 133.9"></polygon>
        <polygon id="Shape" fill="#F3A81D" points="113.9 144.4 114.7 144.7 114.5 143.9"></polygon>
        <polygon id="Shape" fill="#19ABCE" points="113.9 144.4 114.7 144.7 114.5 143.9"></polygon>
        <polygon id="Shape" fill="#F3A81D" points="111 134 110.7 133 110.6 133.9"></polygon>
        <polygon id="Shape" fill="#19ABCE" points="111 134 110.7 133 110.6 133.9"></polygon>
        <path d="M175.3,76.6 L175.3,76.6 L135.4,84.4 L135.6,116.1 L176.8,131.5 L177,108.1 L158.4,118.8 L163.6,103.3 L177.1,99.4 L177.3,76.2 L175.3,76.6 Z" id="Shape" fill="#4E9D2D"></path>
        <polygon id="Shape" fill="#3FAE2A" points="135.9 150.9 136.1 175.6 176.6 175.5 176.7 160.3 171 161.1"></polygon>
        <polygon id="Shape" fill="#3FAE2A" points="107.4 121.8 106.7 121.6 106.9 122"></polygon>
        <path d="M110.3,120.9 L111.3,120.6 L113.1,88.9 L108.9,89.7 C108.7,95.9 105.8,101.7 101.1,105.5 L104.2,114.4 L110.3,120.9 Z" id="Shape" fill="#3FAE2A"></path>
        <polygon id="Shape" fill="#F1582A" points="110.3 120.9 104.2 114.5 106.7 121.6 107.4 121.8"></polygon>
        <polygon id="Shape" fill="#111820" points="110.3 120.9 104.2 114.5 106.7 121.6 107.4 121.8"></polygon>
        <polygon id="Shape" fill="#F3A81D" points="131.1 114.4 135.7 116.2 135.4 84.5 113.1 88.9 111.4 120.6"></polygon>
        <polygon id="Shape" fill="#00833E" points="131.1 114.4 135.7 116.2 135.4 84.5 113.1 88.9 111.4 120.6"></polygon>
        <path d="M114.7,144.7 L123.3,169.5 C125.1,168.7 127,167.9 128.7,166.9 L128.7,175.6 L136.1,175.6 L135.9,150.9 L114.7,144.7 Z" id="Shape" fill="#F3A81D"></path>
        <path d="M114.7,144.7 L123.3,169.5 C125.1,168.7 127,167.9 128.7,166.9 L128.7,175.6 L136.1,175.6 L135.9,150.9 L114.7,144.7 Z" id="Shape" fill="#00833E"></path>
        <polygon id="Shape" fill="#19ABCE" points="111.4 120.6 110.3 120.9 111.3 121.9"></polygon>
        <polygon id="Shape" fill="#026937" points="111.4 120.6 110.3 120.9 111.3 121.9"></polygon>
        <polygon id="Shape" fill="#19ABCE" points="106.9 122 110.7 133 111.2 123.3 107.4 121.8"></polygon>
        <polygon id="Shape" fill="#026937" points="106.9 122 110.7 133 111.2 123.3 107.4 121.8"></polygon>
        <polygon id="Shape" fill="#19ABCE" points="135.9 150.9 171 161.1 176.7 160.3 176.9 131.6 135.7 116.2"></polygon>
        <polygon id="Shape" fill="#026937" points="135.9 150.9 171 161.1 176.7 160.3 176.9 131.6 135.7 116.2"></polygon>
        <polygon id="Shape" fill="#144733" points="111.2 123.3 111.3 121.9 110.3 120.9 107.4 121.8"></polygon>
        <polygon id="Shape" fill="#F3A81D" points="111.4 120.6 111.3 121.9 113.3 124 111.2 123.3 110.7 133 111 134 120.7 138.1 114.5 143.9 114.7 144.7 135.9 150.9 135.7 116.2 131.1 114.4"></polygon>
        <polygon id="Shape" fill="#19ABCE" points="111.4 120.6 111.3 121.9 113.3 124 111.2 123.3 110.7 133 111 134 120.7 138.1 114.5 143.9 114.7 144.7 135.9 150.9 135.7 116.2 131.1 114.4"></polygon>
        <polygon id="Shape" fill="#144733" points="111.4 120.6 111.3 121.9 113.3 124 111.2 123.3 110.7 133 111 134 120.7 138.1 114.5 143.9 114.7 144.7 135.9 150.9 135.7 116.2 131.1 114.4"></polygon>
        <polygon id="Shape" fill="#F1582A" points="113.3 124 111.3 121.9 111.2 123.3"></polygon>
        <polygon id="Shape" fill="#111820" points="113.3 124 111.3 121.9 111.2 123.3"></polygon>
        <path d="M103,154.6 L109.8,148.3 L110.1,143.3 L73.2,132.5 L92.9,126.3 L64.5,114.3 L58.1,122.1 L56,170.4 C61.5,172.6 67.2,174.2 73.1,175.3 L85.1,137.2 L103,154.6 Z" id="Shape" fill="#3FAE2A"></path>
        <path d="M31,155.5 C31.5,156 32.1,156.4 32.6,156.8 L32.4,153.7 L31,155.5 Z" id="Shape" fill="#00B3E3"></path>
        <path d="M32.5,153.7 L32.7,156.8 C39.7,162.6 47.6,167.2 56.1,170.6 L58.2,122.3 L32.5,153.7 Z" id="Shape" fill="#19ABCE"></path>
        <path d="M32.5,153.7 L32.7,156.8 C39.7,162.6 47.6,167.2 56.1,170.6 L58.2,122.3 L32.5,153.7 Z" id="Shape" fill="#026937"></path>
        <polygon id="Shape" fill="#F3A81D" points="109.8 148.3 113.9 144.4 110.1 143.3"></polygon>
        <polygon id="Shape" fill="#0069A6" points="109.8 148.3 113.9 144.4 110.1 143.3"></polygon>
        <polygon id="Shape" fill="#19ABCE" points="92.9 126.4 73.2 132.6 110.1 143.3 110.6 133.9"></polygon>
        <polygon id="Shape" fill="#026937" points="92.9 126.4 73.2 132.6 110.1 143.3 110.6 133.9"></polygon>
        <polygon id="Shape" fill="#0069A6" points="111 134 110.6 133.9 110.1 143.3 113.9 144.4 114.5 143.9"></polygon>
        <polygon id="Shape" fill="#F3A81D" points="120.7 138.1 111 134 114.5 143.9"></polygon>
        <polygon id="Shape" fill="#026937" points="120.7 138.1 111 134 114.5 143.9"></polygon>
        <path d="M103,154.6 L79.6,176.4 C89,177.3 98.6,176.8 108.3,174.5 L109.1,160.5 L103,154.6 Z" id="Shape" fill="#183029"></path>
        <path d="M108.3,174.5 C109.1,174.3 109.8,174.1 110.6,173.9 C113.8,173.1 116.9,172.1 119.9,170.9 L109.1,160.4 L108.3,174.5 Z" id="Shape" fill="#F3A81D"></path>
        <path d="M108.3,174.5 C109.1,174.3 109.8,174.1 110.6,173.9 C113.8,173.1 116.9,172.1 119.9,170.9 L109.1,160.4 L108.3,174.5 Z" id="Shape" fill="#111820"></path>
        <path d="M85.2,137.4 L73.2,175.5 C75.3,175.9 77.5,176.2 79.7,176.4 L103.1,154.6 L85.2,137.4 Z" id="Shape" fill="#FBEE28"></path>
        <path d="M85.2,137.4 L73.2,175.5 C75.3,175.9 77.5,176.2 79.7,176.4 L103.1,154.6 L85.2,137.4 Z" id="Shape" fill="#111820"></path>
        <polygon id="Shape" fill="#FCEE23" points="158.4 118.9 177 108.2 177.1 99.4 163.6 103.3"></polygon>
        <polygon id="Shape" fill="#144733" points="158.4 118.9 177 108.2 177.1 99.4 163.6 103.3"></polygon>
        <path d="M153,29.5 C147.7,23.7 141.6,18.7 134.9,14.5 L135.1,36.6 L153,29.5 Z" id="Shape" fill="#0069A6"></path>
        <polygon id="Shape" fill="#FBEE28" points="115.7 44.4 116.5 28.8 108.9 47.1"></polygon>
        <polygon id="Shape" fill="#00833E" points="115.7 44.4 116.5 28.8 108.9 47.1"></polygon>
        <path d="M124.2,41 L135,36.7 L134.8,14.6 C134.1,14.1 133.3,13.7 132.6,13.3 L129.9,15.4 L124.2,41 Z" id="Shape" fill="#F3A81D"></path>
        <path d="M124.2,41 L135,36.7 L134.8,14.6 C134.1,14.1 133.3,13.7 132.6,13.3 L129.9,15.4 L124.2,41 Z" id="Shape" fill="#144733"></path>
        <polygon id="Shape" fill="#FBEE28" points="124.2 41 130 15.2 118.5 24.2 116.5 28.8 115.7 44.4"></polygon>
        <polygon id="Shape" fill="#F3A81D" points="124.2 41 130 15.2 118.5 24.2 116.5 28.8 115.7 44.4"></polygon>
        <polygon id="Shape" fill="#144733" points="124.2 41 130 15.2 118.5 24.2 116.5 28.8 115.7 44.4"></polygon>
    </g>
    <path d="M500.8,274.4 L500.8,275.4 L498.9,275.4 L498.9,280.4 L497.7,280.4 L497.7,275.4 L495.8,275.4 L495.8,274.4 L500.8,274.4 Z M507.2,280.3 L507,276.8 L507,275.1 L506.9,275.1 C506.7,275.6 506.6,276.3 506.4,276.9 L505.3,280.2 L504.1,280.2 L503,276.8 C502.9,276.3 502.7,275.6 502.6,275.1 L502.5,275.1 L502.5,276.8 L502.3,280.3 L501.2,280.3 L501.6,274.3 L503.4,274.3 L504.4,277.2 C504.5,277.7 504.6,278.1 504.8,278.7 L504.8,278.7 C505,278.2 505.1,277.6 505.2,277.2 L506.2,274.3 L507.9,274.3 L508.4,280.3 L507.2,280.3 L507.2,280.3 Z" id="Shape" stroke="none" fill="#010101" fill-rule="evenodd"></path>
    <path d="M304.2,306.1 L321.8,306.1 C332.1,306.1 338.3,312.2 338.3,321 L338.3,321.1 C338.3,331.1 330.6,336.2 320.9,336.2 L313.7,336.2 L313.7,349.1 L304.2,349.1 L304.2,306.1 L304.2,306.1 Z M321.1,327.8 C325.8,327.8 328.6,325 328.6,321.3 L328.6,321.2 C328.6,317 325.7,314.7 320.9,314.7 L313.6,314.7 L313.6,327.8 L321.1,327.8 Z" id="Shape" stroke="none" fill="#1080AE" fill-rule="evenodd"></path>
    <path d="M339.9,306.1 L359.6,306.1 C365.1,306.1 369.3,307.6 372.1,310.5 C374.5,312.9 375.8,316.3 375.8,320.3 L375.8,320.4 C375.8,327.3 372.1,331.7 366.6,333.7 L377.1,349.1 L366,349.1 L356.8,335.3 L356.7,335.3 L349.4,335.3 L349.4,349.1 L339.9,349.1 L339.9,306.1 Z M359,327 C363.6,327 366.2,324.5 366.2,320.9 L366.2,320.8 C366.2,316.7 363.4,314.7 358.8,314.7 L349.4,314.7 L349.4,327 L359,327 Z" id="Shape" stroke="none" fill="#1080AE" fill-rule="evenodd"></path>
    <path d="M376.7,327.7 L376.7,327.6 C376.7,315.4 386.3,305.4 399.6,305.4 C412.9,305.4 422.4,315.3 422.4,327.5 L422.4,327.6 C422.4,339.8 412.8,349.8 399.5,349.8 C386.2,349.8 376.7,339.9 376.7,327.7 Z M412.5,327.7 L412.5,327.6 C412.5,320.2 407.1,314.1 399.5,314.1 C391.9,314.1 386.6,320.1 386.6,327.5 L386.6,327.6 C386.6,335 392,341.1 399.6,341.1 C407.2,341.1 412.5,335.1 412.5,327.7 Z" id="Shape" stroke="none" fill="#1080AE" fill-rule="evenodd"></path>
    <path d="M421.8,342.8 L427.4,336.1 C431.3,339.3 435.3,341.3 440.2,341.3 C444.1,341.3 446.4,339.8 446.4,337.2 L446.4,337.1 C446.4,334.7 444.9,333.5 437.7,331.6 C429,329.4 423.4,327 423.4,318.5 L423.4,318.4 C423.4,310.6 429.7,305.4 438.4,305.4 C444.7,305.4 450,307.4 454.4,310.9 L449.5,318 C445.7,315.4 441.9,313.8 438.3,313.8 C434.7,313.8 432.8,315.5 432.8,317.5 L432.8,317.6 C432.8,320.4 434.6,321.3 442.1,323.3 C450.8,325.6 455.7,328.7 455.7,336.2 L455.7,336.3 C455.7,344.8 449.2,349.6 439.9,349.6 C433.5,349.7 427,347.4 421.8,342.8 Z" id="Shape" stroke="none" fill="#1080AE" fill-rule="evenodd"></path>
    <rect id="Rectangle-path" stroke="none" fill="#1080AE" fill-rule="evenodd" x="299.4" y="327.8" width="19.8" height="8.3"></rect>
    <path d="M278.7,327.8 L278.7,336 L288.2,336 L288.2,338.6 C285.8,340.3 282.7,341.2 279.3,341.2 C271.7,341.2 266.3,335.4 266.3,327.6 L266.3,327.5 C266.3,326.1 266.5,324.7 266.9,323.4 C268.1,320.8 270.1,318.5 272.7,317 L272.8,316.9 C279.2,313.2 287,314.8 290.9,321.4 C291,321.6 291.1,321.8 291.2,321.9 L296.7,314.3 C296.3,313.8 296,313.4 295.6,312.9 L295.6,312.9 L295.6,312.9 C292.2,309.1 287.9,306.7 283.3,305.8 C283,305.7 282.7,305.7 282.4,305.6 C282.4,305.6 282.4,305.6 282.3,305.6 C282,305.6 281.7,305.5 281.4,305.5 L281.2,305.5 C280.8,305.5 280.5,305.4 280.1,305.4 L279.2,305.4 L279.1,305.4 L278.8,305.4 L278.2,305.4 L277.6,305.4 L277.5,305.4 C265.3,306.2 256.6,315.9 256.6,327.6 L256.6,327.7 C256.6,340.4 265.8,349.8 279.2,349.8 C287.1,349.8 293.1,346.7 297.6,343 L297.6,327.8 L278.7,327.8 L278.7,327.8 Z" id="Shape" stroke="none" fill="#000000" fill-rule="evenodd"></path>
    <path d="M454.4,360.6 L265.5,360.6 C265.2,360.6 264.9,360.4 264.9,360.1 C264.9,359.8 265.1,359.6 265.5,359.6 L454.4,359.6 C454.7,359.6 455,359.8 455,360.1 C455,360.4 454.7,360.6 454.4,360.6 Z" id="Shape" stroke="none" fill="#000000" fill-rule="evenodd"></path>
    <path d="M559.5,360.6 L508.8,360.6 C508.6,360.6 508.5,360.4 508.5,360.1 C508.5,359.8 508.6,359.6 508.8,359.6 L559.5,359.6 C559.7,359.6 559.8,359.8 559.8,360.1 C559.8,360.4 559.6,360.6 559.5,360.6 Z" id="Shape" stroke="none" fill="#000000" fill-rule="evenodd"></path>
    <path d="M481.9,351.1 C485.9,352.2 493.3,358.6 499.9,358.9 C503.1,359.1 505.7,356.7 506.4,356.5 C506.4,356.7 504.4,360.8 502,362.1 C501,362.8 497.6,364.7 493.3,363.7 C489.8,362.9 481.9,356.8 478.1,357.1 C477.5,358.1 477.4,358 476.9,358.9 C476.5,359.7 471.8,364.9 462.4,361.9 C460.3,360.6 458.1,358.5 459.3,355 C460.5,351.9 464.9,350.8 467.4,350.6 C468.4,350.5 469.2,350.4 470.4,350.3 C470.4,349.7 471.2,321.5 471.9,316.1 C475.2,291.4 482.4,288.9 484.8,287.6 C487.3,286 492.3,286.2 498.1,288.4 C499.2,288.8 501.8,290.8 501.9,291.1 C502.4,292.1 502.2,292.6 501.2,292.9 C500.9,293 500.6,293 500.5,292.8 C500.2,292.4 494.7,288.8 490.4,289.6 C489.6,289.7 483.4,288.8 482,307.4 C481.8,309.9 479.6,349.7 479.6,350.4 C480.4,350.7 481.2,350.8 481.9,351.1 Z M469.6,353.2 C467.9,352.9 466,352.8 464.5,353.6 C460,355.9 462.8,359.3 464.1,359.7 C467,360.7 468.5,359.7 469,358.9 C470.1,357.2 470.2,355.2 470.1,353.2 L469.6,353.2 Z" id="Shape" stroke="none" fill="#000000" fill-rule="evenodd"></path>
    <path d="M512.8,303 C513.6,303 514.4,303.3 515.2,303.3 C521.4,303 522.9,330.8 523.2,332.6 C523.4,334.7 524,340.1 524.2,340.8 C527,348.7 532.6,331.7 533.6,325.7 C529.1,317.5 531.9,308.9 532.6,307.8 C532.9,307.1 533.4,306.4 533.9,305.9 C536.2,303.2 542.5,303.2 541.6,311.1 C540.8,318 538.3,322.2 537.7,322.9 C539.3,326.8 543.4,329.3 547.9,325.9 C548.6,325.3 549.3,324.6 549.7,323.7 C549.8,323.5 551.1,322 551.5,321.2 C552,320.4 552.9,320.1 553.7,320.5 C553.8,320.6 554,320.6 554.1,320.7 C554.1,320.9 554.1,321 554.2,321.1 C554.4,321.5 554.3,321.9 554,322.2 C553.8,322.5 553.7,322.7 553.6,323 C553.1,323.7 552.6,324.4 552.1,325.1 C547.2,332.1 540.6,330.4 539.9,330.2 C538.8,329.9 537.7,329.4 536.7,329 C536.5,328.9 536.4,328.8 536.3,328.8 C536.1,329.5 535.3,332.8 534.8,333.8 C533.9,336.8 525.7,356.3 519.7,346.8 C510.4,332.1 511.7,303.8 511.8,303.1 C512.2,302.9 512.5,302.9 512.8,303 Z M536,319.8 C536.1,319.6 540.6,306.3 537.1,307.6 C534.9,308.3 533.7,315.9 536,319.8 Z" id="Shape" stroke="none" fill="#000000" fill-rule="evenodd"></path>
    <path d="M578.7,321.3 C578.6,321.6 578.5,321.8 578.4,322 C577.7,322.9 567.7,345.2 557.6,344.2 C556.3,344.1 552.8,343.5 550.6,340.6 C549.5,338.9 549,337.1 548.9,335.2 C548,321.8 553.5,312 553.8,311.3 C553.8,311.2 556.9,306.7 561.3,305.8 C564.7,305.1 565.9,305.8 566.1,305.8 C572.6,307.1 570.2,319.3 559.6,322.5 C558.1,323 558.4,323 558.1,324.3 C558,324.7 555.8,335.5 558.5,339.3 C559.2,340.1 562,340.7 563.6,339.6 C570.6,334.2 576.5,322.5 577.4,321.3 C577.6,321 577.8,320.6 578.4,320.6 C578.3,320.9 578.5,321.1 578.7,321.3 Z M563.3,307.5 C559,309.7 558,320 558.1,320.6 C566.3,320.2 567.4,311 567.5,310.8 C567.6,307.6 564.5,306.9 563.3,307.5 Z" id="Shape" stroke="none" fill="#000000" fill-rule="evenodd"></path>
    <g id="Group" stroke="none" stroke-width="1" fill="none" fill-rule="evenodd" transform="translate(492.000000, 300.000000)">
        <path d="M22.9,21.9 C22.7,22.4 18.5,34.4 10.8,41.4 C10.7,41.4 4.4,46.2 1.7,38.1 C0.7,35.3 0.7,29.7 0.7,26.2 C0.7,12.6 2.6,9.7 3,8.6 C3.1,8.3 5,8.3 5.5,8.6 C6.6,9 7.3,11.2 7.3,11.5 C9,17 6.3,28.4 7,37.4 C7.3,41.3 11.4,37.5 11.6,37.1 C19.9,26.8 20.6,21 20.8,20.5 C21.2,19.8 21.3,21.1 22.2,21 C22.7,21.2 22.9,21.6 22.9,21.9 Z" id="Shape" fill="#000000"></path>
        <circle id="Oval" fill="#000000" cx="5" cy="2.5" r="2.3"></circle>
    </g>
</svg>